<?xml version="1.0" encoding="utf-8"?>
<!-- Generator: Adobe Illustrator 17.0.0, SVG Export Plug-In . SVG Version: 6.00 Build 0)  -->
<!DOCTYPE svg PUBLIC "-//W3C//DTD SVG 1.1//EN" "http://www.w3.org/Graphics/SVG/1.1/DTD/svg11.dtd">
<svg version="1.1" id="Capa_1" xmlns="http://www.w3.org/2000/svg" xmlns:xlink="http://www.w3.org/1999/xlink" x="0px" y="0px"
	 width="14px" height="25px" viewBox="249 243.5 14 25" enable-background="new 249 243.5 14 25" xml:space="preserve">
<g>
	<path fill="#FFFFFF" d="M262.762,255.447l-11.21-11.21c-0.16-0.16-0.345-0.241-0.553-0.241c-0.208,0-0.393,0.08-0.553,0.241
		l-1.203,1.203c-0.161,0.16-0.241,0.345-0.241,0.553s0.08,0.393,0.241,0.553l9.454,9.454l-9.454,9.454
		c-0.161,0.16-0.241,0.345-0.241,0.553c0,0.209,0.08,0.393,0.241,0.554l1.203,1.202c0.16,0.161,0.345,0.24,0.553,0.24
		c0.208,0,0.393-0.08,0.553-0.24l11.21-11.21c0.16-0.16,0.24-0.345,0.24-0.553C263.002,255.792,262.922,255.607,262.762,255.447z"/>
</g>
</svg>
