<?xml version="1.0" encoding="utf-8"?>
<!-- Generator: Adobe Illustrator 17.0.0, SVG Export Plug-In . SVG Version: 6.00 Build 0)  -->
<!DOCTYPE svg PUBLIC "-//W3C//DTD SVG 1.1//EN" "http://www.w3.org/Graphics/SVG/1.1/DTD/svg11.dtd">
<svg version="1.1" id="Layer_1" xmlns="http://www.w3.org/2000/svg" xmlns:xlink="http://www.w3.org/1999/xlink" x="0px" y="0px"
	 width="20px" height="25px" viewBox="7 6.5 20 25" enable-background="new 7 6.5 20 25" xml:space="preserve">
<g>
	<path d="M10.312,6.512C8.486,6.512,7,7.997,7,9.823v18.354c0,1.827,1.486,3.312,3.312,3.312h13.376
		c1.827,0,3.312-1.486,3.312-3.312V13.414l-6.176-6.902H10.312z M25.355,28.177c0,0.918-0.748,1.665-1.667,1.665H10.312
		c-0.919,0-1.666-0.747-1.666-1.665V9.823c0-0.918,0.747-1.665,1.666-1.665h9.322v6.394h5.721V28.177z M21.28,9.489l3.055,3.416
		H21.28V9.489z"/>
	<polygon points="23.316,19.654 21.747,18.084 15.83,24.001 12.252,20.425 10.683,21.994 15.83,27.142 	"/>
</g>
<g transform="translate(421.16042,-2106.4036)" display="none">
	<path display="inline" stroke="#000000" stroke-width="0.5" stroke-miterlimit="10" d="M-408.691,2133.93l-0.727-0.727l1.902-1.902
		l1.902-1.902l-1.898-1.898l-1.898-1.898l0.727-0.727l0.727-0.727l1.898,1.898l1.898,1.898l1.898-1.898l1.898-1.898l0.727,0.727
		l0.727,0.727l-1.898,1.898l-1.898,1.898l1.902,1.902l1.902,1.902l-0.727,0.727l-0.727,0.727l-1.902-1.902l-1.902-1.902
		l-1.902,1.902l-1.902,1.902C-407.964,2134.657-408.691,2133.93-408.691,2133.93z"/>
</g>
</svg>
