<?xml version="1.0" encoding="utf-8"?>
<!-- Generator: Adobe Illustrator 17.0.0, SVG Export Plug-In . SVG Version: 6.00 Build 0)  -->
<!DOCTYPE svg PUBLIC "-//W3C//DTD SVG 1.1//EN" "http://www.w3.org/Graphics/SVG/1.1/DTD/svg11.dtd">
<svg version="1.1" id="Layer_1" xmlns="http://www.w3.org/2000/svg" xmlns:xlink="http://www.w3.org/1999/xlink" x="0px" y="0px"
	 width="50px" height="50px" viewBox="231 231 50 50" enable-background="new 231 231 50 50" xml:space="preserve">
<path fill="#1B1D1E" d="M259.391,256l20.906-20.906c0.936-0.936,0.936-2.455,0-3.391s-2.455-0.936-3.391,0L256,252.608
	l-20.906-20.903c-0.936-0.936-2.455-0.936-3.391,0c-0.936,0.936-0.936,2.455,0,3.391l20.906,20.906l-20.903,20.903
	c-0.936,0.936-0.936,2.455,0,3.391c0.47,0.467,1.08,0.703,1.694,0.703c0.614,0,1.227-0.233,1.694-0.703L256,259.391l20.906,20.906
	c0.47,0.467,1.08,0.703,1.694,0.703s1.227-0.233,1.694-0.703c0.936-0.936,0.936-2.455,0-3.391L259.391,256z"/>
</svg>
