<?xml version="1.0" encoding="utf-8"?>
<!-- Generator: Adobe Illustrator 17.0.0, SVG Export Plug-In . SVG Version: 6.00 Build 0)  -->
<!DOCTYPE svg PUBLIC "-//W3C//DTD SVG 1.1//EN" "http://www.w3.org/Graphics/SVG/1.1/DTD/svg11.dtd">
<svg version="1.1" id="Capa_1" xmlns="http://www.w3.org/2000/svg" xmlns:xlink="http://www.w3.org/1999/xlink" x="0px" y="0px"
	 width="12px" height="12px" viewBox="244 244 12 12" enable-background="new 244 244 12 12" xml:space="preserve">
<path d="M255.53,244.837c-0.303-0.303-0.7-0.47-1.118-0.47h-8.824c-0.418,0-0.816,0.167-1.118,0.47
	c-0.303,0.303-0.47,0.7-0.47,1.118v6.066c0,0.418,0.167,0.816,0.47,1.118c0.303,0.303,0.7,0.47,1.118,0.47h0.985v1.353
	c0,0.274,0.172,0.525,0.428,0.624l0.001,0l0.001,0c0.077,0.029,0.158,0.044,0.24,0.044c0.188,0,0.368-0.08,0.495-0.219l1.639-1.803
	h5.035c0.418,0,0.816-0.167,1.118-0.47c0.303-0.303,0.47-0.7,0.47-1.118v-6.066C256,245.538,255.833,245.14,255.53,244.837z
	 M250.667,251.822c-0.013-0.178-0.095-0.341-0.231-0.457c-0.121-0.104-0.276-0.162-0.436-0.162c-0.195,0-0.38,0.085-0.507,0.232
	l-0.915,1.063l-0.666,0.733v-0.291c0-0.369-0.3-0.669-0.669-0.669h-1.654c-0.131,0-0.25-0.119-0.25-0.25v-6.066
	c0-0.131,0.119-0.25,0.25-0.25h8.824c0.131,0,0.25,0.119,0.25,0.25v6.066c0,0.131-0.119,0.25-0.25,0.25h-3.875
	C250.633,252.143,250.679,251.985,250.667,251.822z"/>
</svg>
