<?xml version="1.0" encoding="utf-8"?>
<!-- Generator: Adobe Illustrator 22.0.1, SVG Export Plug-In . SVG Version: 6.00 Build 0)  -->
<svg version="1.1" id="Layer_1" xmlns="http://www.w3.org/2000/svg" xmlns:xlink="http://www.w3.org/1999/xlink" x="0px" y="0px"
	 viewBox="0 0 631 380.5" style="enable-background:new 0 0 631 380.5;" xml:space="preserve">
<path d="M523.1,91.8c-30.6-25.9-61.8-46.6-92.7-61.4C391.2,11.6,352.3,2,314.7,2S238.2,11.5,199,30.4
	c-30.9,14.9-62.1,35.5-92.7,61.4c-51.8,43.9-83.7,87.2-85,89c-3.2,4.4-3.2,10.3,0,14.7c1.3,1.8,33.2,45.1,85,89
	c30.6,25.9,61.8,46.6,92.7,61.4c39.2,18.8,78.1,28.4,115.7,28.4s76.5-9.5,115.7-28.4c30.9-14.9,62.1-35.5,92.7-61.4
	c51.8-43.9,83.7-87.2,85-89c3.2-4.4,3.2-10.3,0-14.7C606.8,178.9,574.9,135.6,523.1,91.8z M314.8,349.4
	c-76.9,0-146.8-45.4-191.8-83.5c-27.6-23.5-53-49.5-75.7-77.7C73.3,155.7,184.5,27,314.8,27c76.9,0,146.8,45.4,191.8,83.5
	c27.6,23.5,53,49.5,75.7,77.7C556.3,220.6,445.1,349.4,314.8,349.4L314.8,349.4z"/>
<path d="M314.8,54.8c-73.6,0-133.3,59.7-133.3,133.3s59.7,133.3,133.3,133.3s133.3-59.7,133.3-133.3
	C448,114.5,388.4,54.9,314.8,54.8z M314.8,296.5c-59.9,0-108.4-48.5-108.4-108.4S254.9,79.7,314.8,79.7s108.4,48.5,108.4,108.4
	C423.1,248,374.6,296.4,314.8,296.5L314.8,296.5z"/>
</svg>
