<?xml version="1.0" encoding="utf-8"?>
<!-- Generator: Adobe Illustrator 22.0.1, SVG Export Plug-In . SVG Version: 6.00 Build 0)  -->
<svg version="1.1" id="Layer_1" xmlns="http://www.w3.org/2000/svg" xmlns:xlink="http://www.w3.org/1999/xlink" x="0px" y="0px"
	 viewBox="0 0 393 393" style="enable-background:new 0 0 393 393;" xml:space="preserve">
<path d="M371.9,0H21.5C15.3,0,9.6,3.4,6.8,8.9C4,14.5,4.5,21.2,8.1,26.3l128.4,180.8c0,0.1,0.1,0.1,0.1,0.2
	c4.7,6.3,7.2,13.9,7.2,21.8v147.4c0,4.4,1.7,8.6,4.8,11.7c3.1,3.1,7.3,4.8,11.6,4.8c2.2,0,4.4-0.4,6.5-1.3l72.1-27.5
	c6.5-2,10.8-8.1,10.8-15.4V229.1c0-7.8,2.5-15.5,7.2-21.8c0-0.1,0.1-0.1,0.1-0.2L385.2,26.3c3.7-5.1,4.2-11.8,1.3-17.4
	C383.7,3.4,378.1,0,371.9,0z M240.7,195.5c-7.2,9.7-11,21.5-11.1,33.6v117.3l-65.8,25.1V229.1c0-12.1-3.9-23.9-11.1-33.6L28.1,19.9
	h337.2L240.7,195.5z"/>
</svg>
