<?xml version="1.0" encoding="utf-8"?>
<!-- Generator: Adobe Illustrator 17.0.0, SVG Export Plug-In . SVG Version: 6.00 Build 0)  -->
<!DOCTYPE svg PUBLIC "-//W3C//DTD SVG 1.1//EN" "http://www.w3.org/Graphics/SVG/1.1/DTD/svg11.dtd">
<svg version="1.1" id="Layer_1" xmlns="http://www.w3.org/2000/svg" xmlns:xlink="http://www.w3.org/1999/xlink" x="0px" y="0px"
	 width="8px" height="11px" viewBox="246 244.5 8 11" enable-background="new 246 244.5 8 11" xml:space="preserve">
<g>
	<path fill="#FCD91C" d="M249.027,255.472c0.047,0.019,0.095,0.028,0.142,0.028c0.123,0,0.246-0.057,0.322-0.171l4.065-5.875
		c0.085-0.114,0.095-0.275,0.028-0.398c-0.066-0.123-0.199-0.208-0.341-0.208l-2.521-0.019l0.73-3.866
		c0.038-0.171-0.057-0.351-0.218-0.426c-0.161-0.076-0.351-0.028-0.464,0.114l-4.312,5.43c-0.095,0.114-0.114,0.275-0.047,0.407
		c0.066,0.133,0.199,0.218,0.351,0.218l2.786,0.019l-0.749,4.321C248.761,255.225,248.856,255.405,249.027,255.472z"/>
</g>
</svg>
