<?xml version="1.0" encoding="iso-8859-1"?>
<!-- Generator: Adobe Illustrator 19.0.0, SVG Export Plug-In . SVG Version: 6.00 Build 0)  -->
<svg version="1.1" id="Layer_1" xmlns="http://www.w3.org/2000/svg" xmlns:xlink="http://www.w3.org/1999/xlink" x="0px" y="0px"
	 viewBox="0 0 494.898 494.898" style="enable-background:new 0 0 494.898 494.898;" xml:space="preserve">
<g>
	<g>
		<path d="M261.198,297.336c-3.3,0-6,2.7-6,6c0.1,17.8-6.7,34.5-19.1,47.2c-12.4,12.7-29.1,19.7-46.9,19.8
			c-17.8,0.1-34.5-6.7-47.2-19.1c-12.7-12.4-19.7-29.1-19.8-46.9c-0.1-17.8,6.7-34.5,19.1-47.2c12.4-12.7,29.1-19.7,46.9-19.8
			c3.3,0,6-2.7,6-6s-2.7-6-6-6c-21,0.2-40.6,8.5-55.3,23.4c-14.7,14.9-22.9,34.9-22.7,55.8c0.2,21,8.5,40.6,23.4,55.3
			c14.9,14.7,34.7,22.7,55.7,22.6c21-0.2,40.6-8.5,55.3-23.4c14.7-14.9,22.7-34.7,22.6-55.7
			C267.198,300.036,264.497,297.336,261.198,297.336z"/>
	</g>
</g>
<g>
	<g>
		<path d="M363.398,337.736l-23.1-9.6c-3.1-1.3-6.6,0.2-7.8,3.2c-1.3,3.1,0.2,6.6,3.2,7.8l23.1,9.6c5.2,2.2,7.7,8.1,5.5,13.3
			l-10.4,25.1c-2.1,5.2-8.1,7.7-13.3,5.5l-23.1-9.6c-2.6-1.1-5.7-0.2-7.3,2.2c-10.7,16-24.3,29.6-40.2,40.2
			c-2.4,1.6-3.3,4.6-2.2,7.3l9.6,23.1c1,2.5,1,5.3,0,7.8s-3,4.5-5.5,5.5l-25.2,10.4c-2.5,1-5.3,1-7.8,0s-4.5-3-5.5-5.5l-9.6-23.1
			c-1.1-2.6-3.9-4.1-6.7-3.6c-18.9,3.8-38,3.8-56.9,0c-2.8-0.6-5.6,0.9-6.7,3.6l-9.6,23.1c-2.2,5.2-8.1,7.7-13.3,5.5l-25.1-10.4
			c-5.2-2.2-7.7-8.1-5.5-13.3l9.6-23.1c1.1-2.6,0.2-5.7-2.2-7.3c-16-10.7-29.6-24.3-40.2-40.2c-1.6-2.4-4.6-3.3-7.3-2.2l-23.1,9.6
			c-2.5,1-5.3,1-7.8,0s-4.5-3-5.5-5.5l-10.4-25.2c-1-2.5-1-5.3,0-7.8s3-4.5,5.5-5.5l23.1-9.6c2.6-1.1,4.1-3.9,3.6-6.7
			c-3.8-18.9-3.7-38,0-56.9c0.6-2.8-0.9-5.6-3.6-6.7l-23.2-9.5c-5.2-2.2-7.7-8.1-5.5-13.3l10.4-25.1c2.2-5.2,8.1-7.7,13.3-5.5
			l23.1,9.6c2.6,1.1,5.7,0.2,7.3-2.2c10.7-16,24.3-29.6,40.2-40.2c2.4-1.6,3.3-4.6,2.2-7.3l-9.6-23.1c-1-2.5-1-5.3,0-7.8
			s3-4.5,5.5-5.5l25.2-10.4c2.5-1,5.3-1,7.8,0s4.5,3,5.5,5.5l9.6,23.1c1.3,3.1,4.8,4.5,7.8,3.2c3.1-1.3,4.5-4.8,3.2-7.8l-9.6-23.1
			c-2.3-5.5-6.5-9.7-12-12c-2.7-1.1-5.6-1.7-8.5-1.7c-2.9,0-5.8,0.6-8.5,1.7l-25.2,10.4c-5.5,2.3-9.7,6.5-12,12s-2.3,11.5,0,17
			l7.7,18.6c-14.2,10.1-26.5,22.4-36.7,36.7l-18.6-7.7c-5.5-2.3-11.5-2.3-17,0s-9.7,6.5-12,12l-10.4,25.1c-4.7,11.3,0.7,24.3,12,29
			l18.6,7.7c-2.9,17.3-2.9,34.7,0,51.9l-18.6,7.7c-5.3,2.2-9.6,6.4-11.8,11.9c-2.3,5.5-2.3,11.5,0,17l10.4,25.2
			c2.3,5.5,6.5,9.7,12,12s11.5,2.3,17,0l18.6-7.7c10.1,14.2,22.4,26.5,36.7,36.7l-7.8,18.6c-4.7,11.3,0.7,24.3,12,29l25.1,10.4
			c11.3,4.7,24.3-0.7,29-12l7.7-18.6c17.3,2.9,34.7,2.9,51.9,0l7.7,18.6c2.3,5.5,6.5,9.7,12,12s11.5,2.3,17,0l25.2-10.4
			c5.5-2.3,9.7-6.5,12-12s2.3-11.5,0-17l-7.7-18.6c14.2-10.1,26.5-22.4,36.7-36.7l18.6,7.7c5.5,2.3,11.5,2.3,17,0s9.7-6.5,12-12
			l10.4-25.1C380.098,355.436,374.698,342.436,363.398,337.736z"/>
	</g>
</g>
<g>
	<g>
		<path d="M350.297,90.736c-31,0-56.2,25.2-56.2,56.2s25.2,56.2,56.2,56.2s56.2-25.2,56.2-56.2S381.297,90.736,350.297,90.736z
			 M350.297,191.036c-24.4,0-44.2-19.8-44.2-44.2c0-24.4,19.8-44.2,44.2-44.2s44.2,19.8,44.2,44.2
			C394.497,171.236,374.698,191.036,350.297,191.036z"/>
	</g>
</g>
<g>
	<g>
		<path d="M477.098,119.236h-13.3c-2.8-11.7-7.4-22.7-13.7-33l9.4-9.4c3.4-3.4,5.2-7.8,5.2-12.6c0-4.7-1.8-9.2-5.2-12.6l-14-14
			c-3.4-3.4-7.8-5.2-12.6-5.2c-4.7,0-9.2,1.8-12.6,5.2l-9.4,9.4c-10.3-6.3-21.3-10.8-33-13.7v-13.2c0-9.8-8-17.8-17.8-17.8h-19.8
			c-9.8,0-17.8,8-17.8,17.8v13.3c-11.7,2.8-22.7,7.4-33,13.7l-9.4-9.4c-3.4-3.4-7.8-5.2-12.6-5.2c-4.8,0-9.2,1.8-12.6,5.2l-14,14
			c-3.4,3.4-5.2,7.8-5.2,12.6c0,4.7,1.8,9.2,5.2,12.6l9.4,9.4c-6.3,10.3-10.8,21.3-13.7,33h-13.3c-9.8,0-17.8,8-17.8,17.8v19.8
			c0,9.8,8,17.8,17.8,17.8h13.3c2.8,11.7,7.4,22.7,13.7,33l-9.4,9.4c-3.4,3.4-5.2,7.8-5.2,12.6c0,4.7,1.8,9.2,5.2,12.6l14,14
			c3.4,3.4,7.8,5.2,12.6,5.2c4.8,0,9.2-1.8,12.6-5.2l9.4-9.4c10.3,6.3,21.3,10.8,33,13.7v13.3c0,9.8,8,17.8,17.8,17.8h19.8
			c9.8,0,17.8-8,17.8-17.8v-13.3c11.7-2.8,22.7-7.4,33-13.7l9.4,9.4c3.4,3.4,7.8,5.2,12.6,5.2c4.7,0,9.2-1.8,12.6-5.2l14-14
			c3.4-3.4,5.2-7.8,5.2-12.6c0-4.7-1.8-9.2-5.2-12.6l-9.4-9.4c6.3-10.3,10.8-21.3,13.7-33h13.3c9.8,0,17.8-8,17.8-17.8v-19.8
			C494.797,127.136,486.898,119.236,477.098,119.236z M476.997,162.536h-18.2c-2.9,0-5.3,2-5.9,4.8c-2.7,13.5-7.9,26.2-15.6,37.6
			c-1.6,2.4-1.3,5.6,0.7,7.6l12.9,12.9c1.1,1.1,1.7,2.5,1.7,4.1c0,1.5-0.6,3-1.7,4.1l-14,14c-1.1,1.1-2.5,1.7-4.1,1.7
			c-1.5,0-3-0.6-4.1-1.7l-12.9-12.9c-2-2-5.2-2.3-7.6-0.7c-11.5,7.7-24.1,12.9-37.6,15.6c-2.8,0.6-4.8,3-4.8,5.9v18.2
			c0,3.2-2.6,5.8-5.8,5.8h-19.8c-3.2,0-5.8-2.6-5.8-5.8v-18.3c0-2.9-2-5.3-4.8-5.9c-13.5-2.7-26.2-7.9-37.6-15.6
			c-2.4-1.6-5.6-1.3-7.6,0.7l-12.9,12.9c-1.1,1.1-2.5,1.7-4.1,1.7c-1.6,0-3-0.6-4.1-1.7l-14-14c-1.1-1.1-1.7-2.5-1.7-4.1
			c0-1.5,0.6-3,1.7-4.1l12.9-12.9c2-2,2.3-5.2,0.7-7.6c-7.7-11.5-12.9-24.1-15.6-37.6c-0.6-2.8-3-4.8-5.9-4.8h-18.2
			c-3.2,0-5.8-2.6-5.8-5.8v-19.8c0-3.2,2.6-5.8,5.8-5.8h18.2c2.9,0,5.3-2,5.9-4.8c2.7-13.5,7.9-26.2,15.6-37.6
			c1.6-2.4,1.3-5.6-0.7-7.6l-12.9-12.9c-1.1-1.1-1.7-2.5-1.7-4.1c0-1.5,0.6-3,1.7-4.1l14-14c1.1-1.1,2.5-1.7,4.1-1.7
			c1.6,0,3,0.6,4.1,1.7l12.9,12.9c2,2,5.2,2.3,7.6,0.7c11.5-7.7,24.1-12.9,37.6-15.6c2.8-0.6,4.8-3,4.8-5.9v-17.9
			c0-3.2,2.6-5.8,5.8-5.8h19.8c3.2,0,5.8,2.6,5.8,5.8v18.2c0,2.9,2,5.3,4.8,5.9c13.5,2.7,26.2,7.9,37.6,15.6c1,0.7,2.2,1,3.3,1
			c1.5,0,3.1-0.6,4.2-1.8l12.9-12.9c1.1-1.1,2.5-1.7,4.1-1.7c1.5,0,3,0.6,4.1,1.7l14,14c1.1,1.1,1.7,2.5,1.7,4.1
			c0,1.5-0.6,3-1.7,4.1l-12.9,12.9c-2,2-2.3,5.2-0.7,7.6c7.7,11.5,12.9,24.1,15.6,37.6c0.6,2.8,3,4.8,5.9,4.8h18.2
			c3.2,0,5.8,2.6,5.8,5.8v19.7h0.1C482.797,159.936,480.198,162.536,476.997,162.536z"/>
	</g>
</g>
<g>
</g>
<g>
</g>
<g>
</g>
<g>
</g>
<g>
</g>
<g>
</g>
<g>
</g>
<g>
</g>
<g>
</g>
<g>
</g>
<g>
</g>
<g>
</g>
<g>
</g>
<g>
</g>
<g>
</g>
</svg>
