<?xml version="1.0" encoding="utf-8"?>
<!-- Generator: Adobe Illustrator 17.0.0, SVG Export Plug-In . SVG Version: 6.00 Build 0)  -->
<!DOCTYPE svg PUBLIC "-//W3C//DTD SVG 1.1//EN" "http://www.w3.org/Graphics/SVG/1.1/DTD/svg11.dtd">
<svg version="1.1" id="Layer_1" xmlns="http://www.w3.org/2000/svg" xmlns:xlink="http://www.w3.org/1999/xlink" x="0px" y="0px"
	 width="28px" height="30px" viewBox="336 335 28 30" enable-background="new 336 335 28 30" xml:space="preserve">
<g>
	<path fill="#2B414D" d="M354.102,355.907c6.321-0.529,9.329-4.023,9.545-8.639c0.181-2.629-0.865-4.941-2.721-6.806
		c0.094-1.996-0.06-4.361-0.189-5.4c-1.425-0.41-4.749,1.345-5.678,2.096c-1.959-0.761-6.753-1.027-9.667,0
		c-2.066-1.453-4.417-2.35-5.698-2.1c-1.183,2.622-0.423,5.101-0.192,5.396c-1.524,1.393-3.649,3.106-3.072,6.697
		c0.926,5.265,4.63,8.105,10.594,8.799c-1.272,0.26-1.487,1.209-1.594,1.621c-4.005,1.652-5.15-1.02-5.656-1.717
		c-1.681-2.081-3.19-1.477-3.283-1.445c-0.09,0.033-0.159,0.164-0.149,0.227c0.085,0.449,1,0.904,1.045,0.941
		c1.241,0.925,1.7,2.595,1.983,3.071c1.78,2.926,5.916,1.713,5.956,1.737c0.003,0.251-0.028,2.328-0.052,3.989
		c1.494,0.407,3.066,0.625,4.689,0.625c2.152,0,4.214-0.381,6.124-1.08c-0.124-1.697-0.26-3.761-0.269-4.605
		C355.765,358.655,355.694,356.978,354.102,355.907z"/>
</g>
</svg>
