<?xml version="1.0" encoding="utf-8"?>
<!-- Generator: Adobe Illustrator 17.0.0, SVG Export Plug-In . SVG Version: 6.00 Build 0)  -->
<!DOCTYPE svg PUBLIC "-//W3C//DTD SVG 1.1//EN" "http://www.w3.org/Graphics/SVG/1.1/DTD/svg11.dtd">
<svg version="1.1" id="Layer_1" xmlns="http://www.w3.org/2000/svg" xmlns:xlink="http://www.w3.org/1999/xlink" x="0px" y="0px"
	 width="34px" height="34px" viewBox="0 2 34 34" enable-background="new 0 2 34 34" xml:space="preserve">
<path fill="#FBBB00" d="M7.535,22.547l-1.183,4.418l-4.326,0.092C0.733,24.659,0,21.915,0,19c0-2.819,0.686-5.477,1.901-7.818h0.001
	l3.851,0.706l1.687,3.828C7.087,16.745,6.894,17.85,6.894,19C6.894,20.248,7.12,21.444,7.535,22.547z"/>
<path fill="#518EF8" d="M33.703,15.824C33.898,16.853,34,17.915,34,19c0,1.217-0.128,2.404-0.372,3.549
	c-0.828,3.897-2.99,7.3-5.985,9.708l-0.001-0.001l-4.851-0.247l-0.687-4.286c1.988-1.166,3.541-2.99,4.359-5.174h-9.09v-6.725h9.223
	H33.703L33.703,15.824z"/>
<path fill="#28B446" d="M27.642,32.256L27.642,32.256C24.729,34.599,21.029,36,17,36c-6.474,0-12.103-3.619-14.974-8.944l5.509-4.51
	c1.436,3.832,5.132,6.559,9.465,6.559c1.862,0,3.607-0.503,5.105-1.382L27.642,32.256z"/>
<path fill="#F14336" d="M27.851,5.914l-5.507,4.509C20.794,9.454,18.962,8.894,17,8.894c-4.431,0-8.196,2.853-9.56,6.822
	l-5.538-4.534H1.901C4.73,5.727,10.43,2,17,2C21.125,2,24.907,3.469,27.851,5.914z"/>
</svg>
