<?xml version="1.0" encoding="utf-8"?>
<!-- Generator: Adobe Illustrator 17.0.0, SVG Export Plug-In . SVG Version: 6.00 Build 0)  -->
<!DOCTYPE svg PUBLIC "-//W3C//DTD SVG 1.1//EN" "http://www.w3.org/Graphics/SVG/1.1/DTD/svg11.dtd">
<svg version="1.1" id="Capa_1" xmlns="http://www.w3.org/2000/svg" xmlns:xlink="http://www.w3.org/1999/xlink" x="0px" y="0px"
	 width="188px" height="188px" viewBox="162 162 188 188" enable-background="new 162 162 188 188" xml:space="preserve">
<g>
	<path d="M256,350c-51.831,0-94-42.169-94-94s42.169-94,94-94s94,42.169,94,94S307.831,350,256,350z M256,167.697
		c-48.692,0-88.303,39.611-88.303,88.303s39.611,88.303,88.303,88.303s88.303-39.611,88.303-88.303S304.692,167.697,256,167.697z"/>
	<path d="M255.994,299.234c-13.547,0-27.089-3.714-39.172-11.155l-2.256-1.39c-1.339-0.832-1.755-2.581-0.934-3.919
		c0.82-1.339,2.575-1.755,3.92-0.929l2.256,1.39c22.326,13.747,50.054,13.752,72.374-0.006l2.256-1.396
		c1.339-0.82,3.099-0.41,3.92,0.929c0.826,1.339,0.41,3.093-0.929,3.92l-2.262,1.396
		C283.089,295.514,269.542,299.234,255.994,299.234z"/>
	<g>
		<path d="M242.51,238.055c-0.729,0-1.458-0.279-2.017-0.832l-11.212-11.212l-11.212,11.212c-1.111,1.111-2.917,1.111-4.028,0
			c-1.111-1.111-1.111-2.917,0-4.028l13.223-13.223c1.111-1.111,2.917-1.111,4.028,0l13.223,13.223c1.111,1.111,1.111,2.917,0,4.028
			C243.968,237.775,243.239,238.055,242.51,238.055z"/>
		<path d="M295.941,238.055c-0.729,0-1.458-0.279-2.017-0.832l-11.212-11.212l-11.212,11.212c-1.111,1.111-2.917,1.111-4.028,0
			c-1.111-1.111-1.111-2.917,0-4.028l13.223-13.223c1.111-1.111,2.917-1.111,4.028,0l13.223,13.223c1.111,1.111,1.111,2.917,0,4.028
			C297.4,237.775,296.671,238.055,295.941,238.055z"/>
	</g>
</g>
</svg>
