<?xml version="1.0" encoding="utf-8"?>
<!-- Generator: Adobe Illustrator 17.0.0, SVG Export Plug-In . SVG Version: 6.00 Build 0)  -->
<!DOCTYPE svg PUBLIC "-//W3C//DTD SVG 1.1//EN" "http://www.w3.org/Graphics/SVG/1.1/DTD/svg11.dtd">
<svg version="1.1" id="Layer_1" xmlns="http://www.w3.org/2000/svg" xmlns:xlink="http://www.w3.org/1999/xlink" x="0px" y="0px"
	 width="18px" height="18px" viewBox="21 21 18 18" enable-background="new 21 21 18 18" xml:space="preserve">
<defs>
	<filter id="Adobe_OpacityMaskFilter" filterUnits="userSpaceOnUse" x="21" y="21" width="18" height="18">
		<feColorMatrix  type="matrix" values="1 0 0 0 0  0 1 0 0 0  0 0 1 0 0  0 0 0 1 0"/>
	</filter>
</defs>
<mask maskUnits="userSpaceOnUse" x="21" y="21" width="18" height="18" id="mask-2_1_">
	<g filter="url(#Adobe_OpacityMaskFilter)">
		<path id="path-1_2_" fill="#FFFFFF" d="M13.125,30c0-9.32,7.555-16.875,16.875-16.875S46.875,20.68,46.875,30
			S39.32,46.875,30,46.875S13.125,39.32,13.125,30z"/>
	</g>
</mask>
<path id="Shape" mask="url(#mask-2_1_)" d="M30.001,21c-2.444,0-2.751,0.011-3.711,0.054c-0.958,0.044-1.612,0.196-2.184,0.418
	c-0.592,0.23-1.094,0.537-1.594,1.038c-0.501,0.5-0.808,1.002-1.039,1.594c-0.223,0.572-0.375,1.227-0.418,2.184
	C21.011,27.249,21,27.556,21,30s0.011,2.75,0.054,3.71c0.044,0.958,0.196,1.612,0.418,2.184c0.23,0.592,0.538,1.094,1.038,1.594
	c0.5,0.501,1.002,0.809,1.594,1.039c0.573,0.223,1.227,0.374,2.185,0.418C27.249,38.989,27.556,39,30,39
	c2.444,0,2.75-0.011,3.71-0.054c0.958-0.044,1.613-0.196,2.186-0.418c0.592-0.23,1.093-0.538,1.593-1.039
	c0.501-0.5,0.808-1.002,1.039-1.594c0.221-0.572,0.373-1.227,0.418-2.184C38.989,32.75,39,32.444,39,30s-0.011-2.751-0.054-3.711
	c-0.045-0.958-0.197-1.612-0.418-2.184c-0.231-0.592-0.538-1.094-1.039-1.594c-0.501-0.501-1.001-0.808-1.594-1.038
	c-0.574-0.223-1.228-0.374-2.186-0.418C32.749,21.011,32.443,21,29.998,21H30.001z M29.193,22.622c0.24,0,0.507,0,0.807,0
	c2.403,0,2.688,0.009,3.637,0.052c0.878,0.04,1.354,0.187,1.671,0.31c0.42,0.163,0.719,0.358,1.034,0.673
	c0.315,0.315,0.51,0.615,0.674,1.035c0.123,0.317,0.27,0.793,0.31,1.671c0.043,0.949,0.052,1.234,0.052,3.636
	s-0.009,2.687-0.052,3.636c-0.04,0.878-0.187,1.354-0.31,1.671c-0.163,0.42-0.359,0.719-0.674,1.034
	c-0.315,0.315-0.614,0.51-1.034,0.673c-0.317,0.124-0.794,0.27-1.671,0.31c-0.949,0.043-1.234,0.053-3.637,0.053
	c-2.403,0-2.688-0.009-3.637-0.053c-0.878-0.04-1.354-0.187-1.671-0.31c-0.42-0.163-0.72-0.358-1.035-0.673
	c-0.315-0.315-0.51-0.614-0.674-1.034c-0.123-0.317-0.27-0.793-0.31-1.671c-0.043-0.949-0.052-1.234-0.052-3.637
	s0.009-2.687,0.052-3.636c0.04-0.878,0.187-1.354,0.31-1.671c0.163-0.42,0.359-0.72,0.674-1.035c0.315-0.315,0.615-0.51,1.035-0.674
	c0.317-0.124,0.794-0.27,1.671-0.31c0.83-0.038,1.152-0.049,2.829-0.051V22.622z M34.805,24.116c-0.596,0-1.08,0.483-1.08,1.08
	c0,0.596,0.484,1.08,1.08,1.08s1.08-0.484,1.08-1.08S35.401,24.116,34.805,24.116L34.805,24.116z M30.001,25.378
	c-2.552,0-4.622,2.069-4.622,4.622s2.069,4.621,4.622,4.621s4.621-2.069,4.621-4.621S32.553,25.378,30.001,25.378L30.001,25.378z
	 M30.001,27c1.657,0,3,1.343,3,3c0,1.657-1.343,3-3,3c-1.657,0-3-1.343-3-3C27.001,28.343,28.344,27,30.001,27L30.001,27z"/>
</svg>
