<?xml version="1.0" encoding="utf-8"?>
<!-- Generator: Adobe Illustrator 17.0.0, SVG Export Plug-In . SVG Version: 6.00 Build 0)  -->
<!DOCTYPE svg PUBLIC "-//W3C//DTD SVG 1.1//EN" "http://www.w3.org/Graphics/SVG/1.1/DTD/svg11.dtd">
<svg version="1.1" id="Layer_1" xmlns="http://www.w3.org/2000/svg" xmlns:xlink="http://www.w3.org/1999/xlink" x="0px" y="0px"
	 width="18px" height="18px" viewBox="0 0 18 18" enable-background="new 0 0 18 18" xml:space="preserve">
<defs>
	<filter id="Adobe_OpacityMaskFilter" filterUnits="userSpaceOnUse" x="0" y="0" width="18" height="18">
		<feColorMatrix  type="matrix" values="1 0 0 0 0  0 1 0 0 0  0 0 1 0 0  0 0 0 1 0"/>
	</filter>
</defs>
<mask maskUnits="userSpaceOnUse" x="0" y="0" width="18" height="18" id="mask-2_1_">
	<g filter="url(#Adobe_OpacityMaskFilter)">
		<path id="path-1_2_" fill="#FFFFFF" d="M-7.875,9C-7.875-0.32-0.32-7.875,9-7.875S25.875-0.32,25.875,9S18.32,25.875,9,25.875
			S-7.875,18.32-7.875,9z"/>
	</g>
</mask>
<path id="Shape" display="none" mask="url(#mask-2_1_)" d="M9.001,0C6.557,0,6.25,0.011,5.29,0.054
	C4.332,0.098,3.678,0.25,3.106,0.472C2.514,0.702,2.012,1.009,1.512,1.51c-0.501,0.5-0.808,1.002-1.039,1.594
	C0.25,3.676,0.098,4.331,0.055,5.288C0.011,6.249,0,6.556,0,9s0.011,2.75,0.054,3.71c0.044,0.958,0.196,1.612,0.418,2.184
	c0.23,0.592,0.538,1.094,1.038,1.594c0.5,0.501,1.002,0.809,1.594,1.039c0.573,0.223,1.227,0.374,2.185,0.418
	C6.249,17.989,6.556,18,9,18s2.75-0.011,3.71-0.054c0.958-0.044,1.613-0.196,2.186-0.418c0.592-0.23,1.093-0.538,1.593-1.039
	c0.501-0.5,0.808-1.002,1.039-1.594c0.221-0.572,0.373-1.227,0.418-2.184C17.989,11.75,18,11.444,18,9s-0.011-2.751-0.054-3.711
	c-0.045-0.958-0.197-1.612-0.418-2.184c-0.231-0.592-0.538-1.094-1.039-1.594c-0.501-0.501-1.001-0.808-1.594-1.038
	c-0.574-0.223-1.228-0.374-2.186-0.418C11.749,0.011,11.443,0,8.998,0H9.001z M8.193,1.622c0.24,0,0.507,0,0.807,0
	c2.403,0,2.688,0.009,3.637,0.052c0.878,0.04,1.354,0.187,1.671,0.31c0.42,0.163,0.719,0.358,1.034,0.673s0.51,0.615,0.674,1.035
	c0.123,0.317,0.27,0.793,0.31,1.671c0.043,0.949,0.052,1.234,0.052,3.636s-0.009,2.687-0.052,3.636
	c-0.04,0.878-0.187,1.354-0.31,1.671c-0.163,0.42-0.359,0.719-0.674,1.034s-0.614,0.51-1.034,0.673
	c-0.317,0.124-0.794,0.27-1.671,0.31c-0.949,0.043-1.234,0.053-3.637,0.053s-2.688-0.009-3.637-0.053
	c-0.878-0.04-1.354-0.187-1.671-0.31c-0.42-0.163-0.72-0.358-1.035-0.673s-0.51-0.614-0.674-1.034
	c-0.123-0.317-0.27-0.793-0.31-1.671c-0.043-0.949-0.052-1.234-0.052-3.637S1.63,6.311,1.673,5.362
	c0.04-0.878,0.187-1.354,0.31-1.671c0.163-0.42,0.359-0.72,0.674-1.035s0.615-0.51,1.035-0.674c0.317-0.124,0.794-0.27,1.671-0.31
	c0.83-0.038,1.152-0.049,2.829-0.051v0.001H8.193z M13.805,3.116c-0.596,0-1.08,0.483-1.08,1.08c0,0.596,0.484,1.08,1.08,1.08
	s1.08-0.484,1.08-1.08S14.401,3.116,13.805,3.116L13.805,3.116z M9.001,4.378C6.449,4.378,4.379,6.447,4.379,9
	s2.069,4.621,4.622,4.621S13.622,11.552,13.622,9S11.553,4.378,9.001,4.378L9.001,4.378z M9.001,6c1.657,0,3,1.343,3,3s-1.343,3-3,3
	s-3-1.343-3-3S7.344,6,9.001,6L9.001,6z"/>
<defs>
	<filter id="Adobe_OpacityMaskFilter_1_" filterUnits="userSpaceOnUse" x="0" y="0" width="18" height="18">
		<feColorMatrix  type="matrix" values="1 0 0 0 0  0 1 0 0 0  0 0 1 0 0  0 0 0 1 0"/>
	</filter>
</defs>
<mask maskUnits="userSpaceOnUse" x="0" y="0" width="18" height="18" id="mask-2_3_">
	<g filter="url(#Adobe_OpacityMaskFilter_1_)">
		<path id="path-1_3_" fill="#FFFFFF" d="M-7.875,9C-7.875-0.32-0.32-7.875,9-7.875S25.875-0.32,25.875,9S18.32,25.875,9,25.875
			S-7.875,18.32-7.875,9z"/>
	</g>
</mask>
<path id="Shape_2_" display="none" mask="url(#mask-2_3_)" d="M9.001,0C6.557,0,6.25,0.011,5.29,0.054
	C4.332,0.098,3.678,0.25,3.106,0.472C2.514,0.702,2.012,1.009,1.512,1.51c-0.501,0.5-0.808,1.002-1.039,1.594
	C0.25,3.676,0.098,4.331,0.055,5.288C0.011,6.249,0,6.556,0,9s0.011,2.75,0.054,3.71c0.044,0.958,0.196,1.612,0.418,2.184
	c0.23,0.592,0.538,1.094,1.038,1.594c0.5,0.501,1.002,0.809,1.594,1.039c0.573,0.223,1.227,0.374,2.185,0.418
	C6.249,17.989,6.556,18,9,18s2.75-0.011,3.71-0.054c0.958-0.044,1.613-0.196,2.186-0.418c0.592-0.23,1.093-0.538,1.593-1.039
	c0.501-0.5,0.808-1.002,1.039-1.594c0.221-0.572,0.373-1.227,0.418-2.184C17.989,11.75,18,11.444,18,9s-0.011-2.751-0.054-3.711
	c-0.045-0.958-0.197-1.612-0.418-2.184c-0.231-0.592-0.538-1.094-1.039-1.594c-0.501-0.501-1.001-0.808-1.594-1.038
	c-0.574-0.223-1.228-0.374-2.186-0.418C11.749,0.011,11.443,0,8.998,0H9.001z M8.193,1.622c0.24,0,0.507,0,0.807,0
	c2.403,0,2.688,0.009,3.637,0.052c0.878,0.04,1.354,0.187,1.671,0.31c0.42,0.163,0.719,0.358,1.034,0.673s0.51,0.615,0.674,1.035
	c0.123,0.317,0.27,0.793,0.31,1.671c0.043,0.949,0.052,1.234,0.052,3.636s-0.009,2.687-0.052,3.636
	c-0.04,0.878-0.187,1.354-0.31,1.671c-0.163,0.42-0.359,0.719-0.674,1.034s-0.614,0.51-1.034,0.673
	c-0.317,0.124-0.794,0.27-1.671,0.31c-0.949,0.043-1.234,0.053-3.637,0.053s-2.688-0.009-3.637-0.053
	c-0.878-0.04-1.354-0.187-1.671-0.31c-0.42-0.163-0.72-0.358-1.035-0.673s-0.51-0.614-0.674-1.034
	c-0.123-0.317-0.27-0.793-0.31-1.671c-0.043-0.949-0.052-1.234-0.052-3.637S1.63,6.311,1.673,5.362
	c0.04-0.878,0.187-1.354,0.31-1.671c0.163-0.42,0.359-0.72,0.674-1.035s0.615-0.51,1.035-0.674c0.317-0.124,0.794-0.27,1.671-0.31
	c0.83-0.038,1.152-0.049,2.829-0.051v0.001H8.193z M13.805,3.116c-0.596,0-1.08,0.483-1.08,1.08c0,0.596,0.484,1.08,1.08,1.08
	s1.08-0.484,1.08-1.08S14.401,3.116,13.805,3.116L13.805,3.116z M9.001,4.378C6.449,4.378,4.379,6.447,4.379,9
	s2.069,4.621,4.622,4.621S13.622,11.552,13.622,9S11.553,4.378,9.001,4.378L9.001,4.378z M9.001,6c1.657,0,3,1.343,3,3s-1.343,3-3,3
	s-3-1.343-3-3S7.344,6,9.001,6L9.001,6z"/>
<g>
	<polygon points="8.998,0 9,0 9.001,0 	"/>
	<path d="M17.946,5.289c-0.045-0.958-0.197-1.612-0.418-2.184c-0.231-0.592-0.538-1.094-1.039-1.594
		c-0.501-0.501-1.001-0.808-1.594-1.038c-0.574-0.223-1.228-0.374-2.186-0.418C11.749,0.011,11.443,0,9,0
		C6.557,0,6.25,0.011,5.29,0.054C4.332,0.098,3.678,0.25,3.106,0.472C2.514,0.702,2.012,1.009,1.512,1.51
		c-0.501,0.5-0.808,1.002-1.039,1.594C0.25,3.676,0.098,4.331,0.055,5.288C0.011,6.249,0,6.556,0,9c0,2.444,0.011,2.75,0.054,3.71
		c0.044,0.958,0.196,1.612,0.418,2.184c0.23,0.592,0.538,1.094,1.038,1.594c0.5,0.501,1.002,0.809,1.594,1.039
		c0.573,0.223,1.227,0.374,2.185,0.418C6.249,17.989,6.556,18,9,18c2.444,0,2.75-0.011,3.71-0.054
		c0.958-0.044,1.613-0.196,2.186-0.418c0.592-0.23,1.093-0.538,1.593-1.039c0.501-0.5,0.808-1.002,1.039-1.594
		c0.221-0.572,0.373-1.227,0.418-2.184C17.989,11.75,18,11.444,18,9C18,6.556,17.989,6.249,17.946,5.289z M9.009,13.621
		c-2.553,0-4.622-2.068-4.622-4.621s2.07-4.622,4.622-4.622S13.63,6.448,13.63,9S11.562,13.621,9.009,13.621z M13.813,5.276
		c-0.596,0-1.08-0.484-1.08-1.08c0-0.597,0.484-1.08,1.08-1.08s1.08,0.484,1.08,1.08S14.409,5.276,13.813,5.276z"/>
	<circle cx="9.009" cy="9" r="3"/>
</g>
</svg>
