<?xml version="1.0" encoding="utf-8"?>
<!-- Generator: Adobe Illustrator 17.0.0, SVG Export Plug-In . SVG Version: 6.00 Build 0)  -->
<!DOCTYPE svg PUBLIC "-//W3C//DTD SVG 1.1//EN" "http://www.w3.org/Graphics/SVG/1.1/DTD/svg11.dtd">
<svg version="1.1" id="type_1" xmlns="http://www.w3.org/2000/svg" xmlns:xlink="http://www.w3.org/1999/xlink" x="0px" y="0px"
	 width="95px" height="18px" viewBox="0 0 95 18" enable-background="new 0 0 95 18" xml:space="preserve">
<g id="monochrome">
	<g id="text_11_" display="none">
		<path display="inline" fill="#313335" d="M16.664,11.917c0.354-0.022,0.636-0.052,0.846-0.091c0.21-0.039,0.437-0.097,0.68-0.174
			c0.155-0.044,0.279-0.066,0.373-0.066c0.094,0,0.171,0.031,0.232,0.091c0.061,0.061,0.116,0.149,0.166,0.265
			c0.05,0.116,0.108,0.263,0.174,0.44c0.055,0.155,0.086,0.271,0.091,0.348c0.005,0.078-0.033,0.141-0.116,0.191
			c-0.083,0.05-0.219,0.094-0.406,0.133c-0.188,0.039-0.437,0.097-0.747,0.174c-0.255,0.066-0.534,0.11-0.838,0.133
			c-0.304,0.022-0.628,0.033-0.971,0.033c-0.697,0-1.261-0.105-1.692-0.315c-0.442-0.21-0.813-0.509-1.112-0.896
			c-0.288-0.387-0.512-0.849-0.672-1.385c-0.16-0.536-0.235-1.142-0.224-1.817c0.022-0.984,0.216-1.836,0.581-2.555
			c0.365-0.719,0.885-1.25,1.56-1.593c0.465-0.243,1.112-0.354,1.941-0.332c0.818,0.022,1.493,0.122,2.024,0.299
			c0.166,0.055,0.299,0.099,0.398,0.133c0.1,0.033,0.171,0.072,0.216,0.116c0.044,0.044,0.061,0.099,0.05,0.166
			c-0.011,0.066-0.039,0.16-0.083,0.282c-0.078,0.177-0.141,0.321-0.191,0.431c-0.05,0.111-0.105,0.191-0.166,0.241
			c-0.061,0.05-0.136,0.072-0.224,0.066c-0.089-0.005-0.21-0.036-0.365-0.091c-0.531-0.188-1.073-0.282-1.626-0.282
			c-0.553,0-0.973,0.078-1.261,0.232c-0.288,0.155-0.512,0.365-0.672,0.63c-0.16,0.266-0.29,0.597-0.39,0.995
			c-0.1,0.421-0.144,0.99-0.133,1.709c0.011,0.741,0.16,1.36,0.448,1.858C14.844,11.773,15.546,11.983,16.664,11.917z"/>
		<path display="inline" fill="#313335" d="M24.047,13.36c-0.642-0.044-1.206-0.199-1.692-0.465
			c-0.675-0.354-1.173-0.882-1.493-1.584c-0.321-0.702-0.448-1.573-0.382-2.613c0.044-0.641,0.16-1.23,0.348-1.767
			c0.188-0.536,0.459-0.995,0.813-1.377c0.354-0.382,0.791-0.666,1.311-0.854c0.52-0.188,1.139-0.26,1.858-0.216
			c0.641,0.044,1.192,0.199,1.651,0.465c0.459,0.266,0.835,0.617,1.128,1.054c0.293,0.437,0.503,0.948,0.63,1.535
			c0.127,0.586,0.18,1.217,0.158,1.891c-0.022,0.642-0.127,1.217-0.315,1.725c-0.188,0.509-0.465,0.935-0.83,1.278
			c-0.365,0.343-0.813,0.597-1.344,0.763C25.357,13.36,24.744,13.415,24.047,13.36z M22.388,11.021
			c0.166,0.299,0.407,0.525,0.722,0.68c0.315,0.155,0.689,0.249,1.12,0.282c0.487,0.033,0.896-0.005,1.228-0.116
			c0.332-0.11,0.6-0.282,0.805-0.514c0.205-0.232,0.357-0.52,0.456-0.863c0.1-0.343,0.155-0.73,0.166-1.161
			c0.011-0.453-0.017-0.882-0.083-1.286c-0.066-0.404-0.185-0.76-0.357-1.07c-0.172-0.309-0.401-0.556-0.689-0.738
			c-0.288-0.183-0.647-0.285-1.078-0.307c-0.498-0.022-0.915,0.036-1.253,0.174c-0.337,0.138-0.611,0.34-0.821,0.606
			c-0.21,0.265-0.365,0.583-0.465,0.954c-0.1,0.371-0.149,0.777-0.149,1.219c-0.011,0.421,0.014,0.81,0.075,1.17
			C22.125,10.41,22.233,10.733,22.388,11.021z"/>
		<path display="inline" fill="#313335" d="M42.659,12.033c0.21-0.011,0.467-0.036,0.771-0.075c0.304-0.039,0.661-0.102,1.07-0.191
			c0.166-0.033,0.296-0.052,0.39-0.058c0.094-0.005,0.171,0.011,0.232,0.05c0.061,0.039,0.113,0.108,0.157,0.207
			c0.044,0.099,0.1,0.238,0.166,0.415c0.055,0.155,0.058,0.277,0.008,0.365c-0.05,0.089-0.141,0.163-0.274,0.224
			c-0.133,0.061-0.293,0.108-0.481,0.141c-0.188,0.033-0.393,0.072-0.614,0.116c-0.587,0.11-1.267,0.166-2.041,0.166
			c-0.763,0-1.36-0.105-1.792-0.315c-0.443-0.21-0.813-0.509-1.112-0.896c-0.288-0.387-0.509-0.846-0.664-1.377
			c-0.155-0.531-0.232-1.145-0.232-1.842c0-0.641,0.094-1.239,0.282-1.792c0.188-0.553,0.426-1.018,0.713-1.394
			c0.299-0.387,0.702-0.702,1.211-0.946c0.509-0.243,1.255-0.359,2.24-0.348c0.11,0.011,0.257,0.031,0.44,0.058
			c0.183,0.028,0.382,0.08,0.597,0.158c0.216,0.078,0.434,0.196,0.655,0.357c0.221,0.161,0.423,0.379,0.606,0.655
			c0.183,0.277,0.334,0.628,0.456,1.053c0.122,0.426,0.194,0.943,0.216,1.551c0,0.232-0.036,0.409-0.108,0.531
			c-0.072,0.122-0.152,0.205-0.241,0.249c-0.089,0.044-0.21,0.072-0.365,0.083h-5.11v0.415c0,0.63,0.16,1.206,0.481,1.725
			C40.629,11.828,41.409,12.066,42.659,12.033z M44.011,6.881c-0.105-0.26-0.24-0.467-0.406-0.622
			c-0.166-0.155-0.357-0.268-0.572-0.34c-0.216-0.072-0.445-0.108-0.688-0.108c-0.487-0.011-0.885,0.066-1.195,0.232
			c-0.288,0.166-0.534,0.401-0.738,0.705c-0.205,0.304-0.351,0.622-0.44,0.954l-0.033,0.133h4.28
			C44.185,7.459,44.116,7.141,44.011,6.881z"/>
		<path display="inline" fill="#313335" d="M52.763,12.697c-0.299,0.177-0.586,0.315-0.863,0.415
			c-0.465,0.188-0.985,0.282-1.56,0.282c-0.077,0-0.149,0-0.216,0c-0.066,0-0.133-0.006-0.199-0.017
			c-0.199-0.022-0.382-0.058-0.548-0.108c-0.166-0.05-0.315-0.102-0.448-0.158c-0.664-0.309-1.164-0.818-1.502-1.526
			c-0.337-0.708-0.506-1.554-0.506-2.538c0-0.641,0.094-1.239,0.282-1.792c0.188-0.553,0.426-1.023,0.713-1.41
			c0.299-0.387,0.614-0.664,0.946-0.83c0.332-0.166,0.619-0.276,0.863-0.332c0.376-0.099,0.796-0.149,1.261-0.149
			c0.387,0,0.708,0.017,0.962,0.05c0.221,0.011,0.492,0.177,0.813,0.498c0-0.144,0.008-0.254,0.025-0.332
			c0.017-0.077,0.052-0.133,0.108-0.166c0.055-0.033,0.13-0.052,0.224-0.058c0.094-0.005,0.218-0.008,0.373-0.008
			c0.188,0,0.334,0.003,0.44,0.008c0.105,0.006,0.185,0.025,0.241,0.058c0.055,0.033,0.091,0.091,0.108,0.174
			c0.017,0.083,0.025,0.202,0.025,0.357v9.274c0,0.752-0.147,1.344-0.44,1.775c-0.293,0.431-0.672,0.769-1.136,1.012
			c-0.177,0.088-0.382,0.169-0.614,0.241c-0.232,0.072-0.462,0.133-0.688,0.183c-0.227,0.05-0.443,0.083-0.647,0.1
			c-0.205,0.017-0.362,0.019-0.473,0.008c-0.265,0-0.523-0.008-0.771-0.025c-0.249-0.017-0.49-0.053-0.722-0.108
			c-0.299-0.066-0.534-0.122-0.705-0.166c-0.172-0.044-0.296-0.091-0.373-0.141c-0.078-0.05-0.116-0.114-0.116-0.191
			c0-0.078,0.022-0.183,0.066-0.315c0.055-0.177,0.105-0.321,0.149-0.431c0.044-0.111,0.097-0.194,0.158-0.249
			c0.061-0.056,0.138-0.083,0.232-0.083c0.094,0,0.218,0.022,0.373,0.066c0.232,0.066,0.475,0.119,0.73,0.158
			c0.254,0.039,0.603,0.047,1.045,0.025c0.431-0.011,0.758-0.044,0.979-0.1c0.442-0.1,0.793-0.268,1.053-0.506
			c0.26-0.238,0.384-0.606,0.373-1.103L52.763,12.697z M51.85,11.85c0.343-0.133,0.647-0.288,0.913-0.465V6.077
			c-0.299-0.1-0.564-0.166-0.796-0.199c-0.133-0.022-0.282-0.039-0.448-0.05c-0.166-0.011-0.354-0.017-0.564-0.017
			c-0.265,0-0.495,0.028-0.688,0.083C50.072,5.95,49.92,6.005,49.81,6.06c-0.265,0.155-0.501,0.382-0.705,0.68
			c-0.205,0.299-0.357,0.647-0.456,1.045c-0.1,0.42-0.144,0.985-0.133,1.692c0.022,0.752,0.183,1.377,0.481,1.875
			c0.232,0.398,0.636,0.647,1.211,0.747c0.144,0.022,0.362,0.025,0.655,0.008C51.156,12.091,51.485,12.005,51.85,11.85z"/>
		<path display="inline" fill="#313335" d="M66.614,12.995c-0.017,0.078-0.05,0.136-0.1,0.174c-0.05,0.039-0.124,0.061-0.224,0.066
			c-0.1,0.006-0.227,0.008-0.382,0.008c-0.188,0-0.335-0.003-0.44-0.008c-0.105-0.005-0.185-0.025-0.241-0.058
			c-0.055-0.033-0.089-0.091-0.099-0.174c-0.011-0.083-0.017-0.202-0.017-0.357V5.828l-0.666,0.004c0,0-0.055-1.105-0.024-1.127
			c0.191-0.139,0.079-0.119,0.601-0.191c0.208-0.029,0.398-0.063,0.653-0.063c0.31,0,0.539,0.083,0.689,0.249
			c0.149,0.166,0.235,0.326,0.257,0.481c0,0.033,0.003,0.075,0.008,0.124c0.006,0.05,0.008,0.102,0.008,0.158v7.184
			C66.638,12.802,66.63,12.918,66.614,12.995z M64.971,1.182c0.017-0.1,0.055-0.174,0.116-0.224c0.061-0.05,0.144-0.077,0.249-0.083
			c0.105-0.005,0.251-0.008,0.44-0.008c0.21,0,0.379,0.003,0.506,0.008c0.127,0.006,0.224,0.031,0.29,0.075
			c0.066,0.044,0.108,0.116,0.124,0.216c0.017,0.1,0.025,0.249,0.025,0.448v0.332c0,0.188-0.008,0.332-0.025,0.431
			c-0.017,0.1-0.056,0.174-0.116,0.224c-0.061,0.05-0.147,0.077-0.257,0.083c-0.111,0.006-0.255,0.008-0.431,0.008
			c-0.221,0-0.393-0.003-0.514-0.008c-0.122-0.006-0.216-0.03-0.282-0.075c-0.066-0.044-0.108-0.116-0.124-0.216
			c-0.017-0.1-0.025-0.249-0.025-0.448V1.614C64.946,1.426,64.954,1.282,64.971,1.182z"/>
		<path fill="#313335" d="M72.957,13.377c-0.199-0.022-0.382-0.058-0.548-0.108c-0.166-0.05-0.315-0.102-0.448-0.158
			c-0.664-0.309-1.164-0.818-1.502-1.526c-0.338-0.708-0.506-1.554-0.506-2.538c0-0.641,0.094-1.239,0.282-1.792
			c0.188-0.553,0.426-1.023,0.713-1.41c0.299-0.387,0.614-0.664,0.946-0.83c0.332-0.166,0.619-0.276,0.863-0.332
			c0.376-0.099,0.796-0.149,1.261-0.149c0.387,0,0.708,0.017,0.962,0.05c0.254,0.022,0.525,0.199,0.813,0.531V0.884
			c0-0.144,0.008-0.257,0.025-0.34c0.017-0.083,0.05-0.144,0.099-0.182c0.05-0.039,0.124-0.061,0.224-0.066
			c0.1-0.005,0.227-0.008,0.382-0.008c0.188,0,0.334,0.003,0.44,0.008c0.105,0.006,0.185,0.025,0.241,0.058
			c0.055,0.033,0.091,0.091,0.108,0.174c0.017,0.083,0.025,0.202,0.025,0.357v11.547h0.946v0.73c-0.011,0-0.158,0.041-0.44,0.124
			c-0.282,0.083-0.655,0.108-1.12,0.075c-0.31-0.022-0.528-0.102-0.655-0.241c-0.127-0.138-0.207-0.279-0.241-0.423
			c-0.144,0.078-0.29,0.149-0.44,0.216c-0.149,0.066-0.301,0.133-0.456,0.199c-0.465,0.188-0.985,0.282-1.56,0.282
			c-0.078,0-0.149,0-0.216,0C73.09,13.393,73.023,13.388,72.957,13.377z M73.239,12.099c0.144,0.022,0.362,0.025,0.655,0.008
			c0.293-0.017,0.622-0.102,0.987-0.257c0.387-0.166,0.691-0.321,0.913-0.465V6.027c-0.265-0.066-0.531-0.119-0.796-0.158
			c-0.266-0.039-0.603-0.058-1.012-0.058c-0.266,0-0.495,0.028-0.688,0.083c-0.194,0.056-0.346,0.111-0.456,0.166
			c-0.265,0.155-0.501,0.382-0.705,0.68c-0.205,0.299-0.357,0.647-0.456,1.045c-0.1,0.42-0.144,0.985-0.133,1.692
			c0.022,0.752,0.182,1.377,0.481,1.875C72.26,11.751,72.664,12,73.239,12.099z"/>
		<path display="inline" fill="#313335" d="M36.971,0.884c0-0.155-0.008-0.274-0.025-0.357c-0.017-0.083-0.053-0.141-0.108-0.174
			C36.783,0.32,36.703,0.3,36.598,0.295c-0.105-0.005-0.252-0.008-0.44-0.008c-0.155,0-0.282,0.003-0.382,0.008
			c-0.1,0.006-0.174,0.028-0.224,0.066c-0.05,0.039-0.083,0.099-0.1,0.182c-0.017,0.083-0.025,0.196-0.025,0.34v4.231
			c-0.288-0.332-0.559-0.509-0.813-0.531c-0.255-0.033-0.575-0.05-0.962-0.05c-0.465,0-0.885,0.05-1.261,0.149
			c-0.243,0.056-0.531,0.166-0.863,0.332c-0.332,0.166-0.647,0.443-0.946,0.83c-0.288,0.387-0.525,0.857-0.713,1.41
			c-0.188,0.553-0.282,1.151-0.282,1.792c0,0.985,0.169,1.831,0.506,2.538c0.337,0.708,0.838,1.217,1.502,1.526
			c0.133,0.056,0.282,0.108,0.448,0.158c0.166,0.05,0.348,0.086,0.548,0.108c0.066,0.011,0.133,0.017,0.199,0.017s0.138,0,0.216,0
			c0.575,0,1.095-0.094,1.56-0.282c0.155-0.066,0.307-0.133,0.456-0.199c0.134-0.059,0.265-0.124,0.394-0.192
			c0.002,0.158,0.01,0.368,0.024,0.437c0.017,0.083,0.053,0.141,0.108,0.174c0.055,0.033,0.136,0.052,0.241,0.058
			c0.105,0.005,0.252,0.008,0.44,0.008c0.155,0,0.282-0.003,0.382-0.008c0.1-0.006,0.174-0.028,0.224-0.066
			c0.05-0.039,0.083-0.099,0.1-0.182c0.014-0.071,0.022-0.493,0.024-0.705c0.008-0.002,0.014-0.004,0.014-0.004V0.884z
			 M34.516,11.85c-0.365,0.155-0.694,0.241-0.987,0.257c-0.293,0.017-0.512,0.014-0.655-0.008c-0.575-0.1-0.979-0.348-1.211-0.747
			c-0.299-0.498-0.459-1.122-0.481-1.875c-0.011-0.708,0.033-1.272,0.133-1.692c0.1-0.398,0.251-0.747,0.456-1.045
			c0.205-0.299,0.44-0.525,0.705-0.68c0.11-0.055,0.263-0.11,0.456-0.166c0.193-0.055,0.423-0.083,0.689-0.083
			c0.409,0,0.747,0.019,1.012,0.058c0.265,0.039,0.531,0.091,0.796,0.158v5.359C35.207,11.53,34.903,11.685,34.516,11.85z"/>
		<path display="inline" fill="#313335" d="M75.435,0.884c0-0.155-0.008-0.274-0.025-0.357c-0.017-0.083-0.053-0.141-0.108-0.174
			C75.247,0.32,75.167,0.3,75.062,0.295c-0.105-0.005-0.252-0.008-0.44-0.008c-0.155,0-0.282,0.003-0.382,0.008
			c-0.1,0.006-0.174,0.028-0.224,0.066c-0.05,0.039-0.083,0.099-0.1,0.182c-0.017,0.083-0.025,0.196-0.025,0.34v4.231
			c-0.288-0.332-0.559-0.509-0.813-0.531c-0.255-0.033-0.575-0.05-0.962-0.05c-0.465,0-0.885,0.05-1.261,0.149
			c-0.243,0.056-0.531,0.166-0.863,0.332c-0.332,0.166-0.647,0.443-0.946,0.83c-0.288,0.387-0.525,0.857-0.713,1.41
			c-0.188,0.553-0.282,1.151-0.282,1.792c0,0.985,0.169,1.831,0.506,2.538c0.337,0.708,0.838,1.217,1.502,1.526
			c0.133,0.056,0.282,0.108,0.448,0.158c0.166,0.05,0.348,0.086,0.548,0.108c0.066,0.011,0.133,0.017,0.199,0.017
			c0.066,0,0.138,0,0.216,0c0.575,0,1.095-0.094,1.56-0.282c0.155-0.066,0.307-0.133,0.456-0.199
			c0.134-0.059,0.265-0.124,0.394-0.192c0.002,0.158,0.01,0.368,0.024,0.437c0.017,0.083,0.053,0.141,0.108,0.174
			c0.055,0.033,0.136,0.052,0.241,0.058c0.105,0.005,0.252,0.008,0.44,0.008c0.155,0,0.282-0.003,0.382-0.008
			c0.1-0.006,0.174-0.028,0.224-0.066c0.05-0.039,0.083-0.099,0.1-0.182c0.014-0.071,0.022-0.493,0.024-0.705
			c0.008-0.002,0.014-0.004,0.014-0.004V0.884z M72.98,11.85c-0.365,0.155-0.694,0.241-0.987,0.257
			c-0.293,0.017-0.512,0.014-0.655-0.008c-0.575-0.1-0.979-0.348-1.211-0.747c-0.299-0.498-0.459-1.122-0.481-1.875
			c-0.011-0.708,0.033-1.272,0.133-1.692c0.1-0.398,0.251-0.747,0.456-1.045c0.205-0.299,0.44-0.525,0.705-0.68
			c0.11-0.055,0.263-0.11,0.456-0.166c0.193-0.055,0.423-0.083,0.689-0.083c0.409,0,0.747,0.019,1.012,0.058
			c0.265,0.039,0.531,0.091,0.796,0.158v5.359C73.671,11.53,73.367,11.685,72.98,11.85z"/>
		<path display="inline" fill="#313335" d="M62.501,4.675c-0.05-0.072-0.174-0.108-0.373-0.108h-0.664
			c-0.188,0-0.31,0.036-0.365,0.108c-0.056,0.072-0.083,0.235-0.083,0.489v6.57c-0.199,0.044-0.379,0.086-0.539,0.124
			c-0.161,0.039-0.321,0.069-0.481,0.091c-0.161,0.022-0.326,0.036-0.498,0.041c-0.172,0.006-0.362,0.003-0.572-0.008
			c-0.509-0.022-0.899-0.13-1.17-0.324c-0.271-0.193-0.407-0.55-0.407-1.07V6.021l0.005-0.863c0-0.254-0.024-0.417-0.073-0.489
			C57.232,4.596,57.11,4.56,56.915,4.56h-0.651c-0.185,0-0.304,0.036-0.358,0.108c-0.054,0.072-0.081,0.235-0.081,0.489v0.669
			c0,0-0.001,0.001-0.001,0.001v5.193c0,0.863,0.251,1.482,0.755,1.858c0.503,0.376,1.313,0.553,2.431,0.531
			c0.243,0,0.462-0.008,0.655-0.025c0.193-0.017,0.368-0.047,0.523-0.091c0.155-0.044,0.304-0.111,0.448-0.199
			c0.121-0.074,0.241-0.176,0.362-0.305l0,0.024c0,0.254,0.025,0.417,0.075,0.489c0.05,0.072,0.174,0.108,0.373,0.108h0.664
			c0.188,0,0.31-0.036,0.365-0.108c0.021-0.028,0.039-0.069,0.052-0.124c0.034-0.068,0.03-0.168,0.03-0.191c0-0.036,0-0.069,0-0.1
			c0.001-0.024,0.001-0.048,0.001-0.074v-0.303c0.001-0.172,0.003-0.113,0.003-0.113v-4.28l0.017-2.953
			C62.576,4.91,62.551,4.747,62.501,4.675z"/>
		<path display="inline" fill="#313335" d="M84.215,12.224v-7.11c0-0.155-0.008-0.274-0.025-0.357
			c-0.017-0.083-0.053-0.141-0.108-0.174c-0.055-0.033-0.136-0.052-0.241-0.058c-0.105-0.005-0.252-0.008-0.44-0.008
			c-0.155,0-0.282,0.003-0.382,0.008c-0.1,0.006-0.174,0.028-0.224,0.066c-0.05,0.039-0.083,0.099-0.099,0.182
			c-0.017,0.083-0.025,0.196-0.025,0.34c-0.288-0.332-0.559-0.509-0.813-0.531c-0.255-0.033-0.575-0.05-0.962-0.05
			c-0.465,0-0.885,0.05-1.261,0.149c-0.243,0.056-0.531,0.166-0.863,0.332c-0.332,0.166-0.647,0.443-0.946,0.83
			c-0.288,0.387-0.525,0.857-0.713,1.41c-0.188,0.553-0.282,1.151-0.282,1.792c0,0.985,0.169,1.831,0.506,2.538
			c0.337,0.708,0.838,1.217,1.502,1.526c0.133,0.056,0.282,0.108,0.448,0.158c0.166,0.05,0.348,0.086,0.548,0.108
			c0.066,0.011,0.133,0.017,0.199,0.017c0.066,0,0.138,0,0.216,0c0.575,0,1.095-0.094,1.56-0.282
			c0.155-0.066,0.307-0.133,0.456-0.199c0.133-0.059,0.263-0.123,0.391-0.191l-0.001,0.099c0,0.254,0.025,0.417,0.075,0.489
			c0.05,0.072,0.174,0.108,0.373,0.108h0.664c0.188,0,0.31-0.036,0.365-0.108c0.056-0.072,0.083-0.235,0.083-0.489L84.215,12.224
			L84.215,12.224z M81.76,11.85c-0.365,0.155-0.694,0.241-0.987,0.257c-0.293,0.017-0.512,0.014-0.655-0.008
			c-0.575-0.1-0.979-0.348-1.211-0.747c-0.299-0.498-0.459-1.122-0.481-1.875c-0.011-0.708,0.033-1.272,0.133-1.692
			c0.1-0.398,0.251-0.747,0.456-1.045c0.205-0.299,0.44-0.525,0.705-0.68c0.11-0.055,0.263-0.11,0.456-0.166
			c0.193-0.055,0.423-0.083,0.689-0.083c0.409,0,0.747,0.019,1.012,0.058c0.266,0.039,0.531,0.091,0.796,0.158v5.359
			C82.451,11.53,82.147,11.685,81.76,11.85z"/>
	</g>
	<g>
		<path fill="#313335" d="M18.475,8.388l2.018-1.108c-0.736-1.171-2.123-1.893-3.648-1.893c-2.474,0-4.34,1.756-4.34,4.086
			s1.866,4.086,4.34,4.086c1.528,0,2.916-0.729,3.648-1.909l-2.016-1.092c-0.303,0.528-0.931,0.852-1.665,0.852
			c-1.154,0-1.991-0.815-1.991-1.937s0.837-1.937,1.991-1.937C17.542,7.535,18.156,7.852,18.475,8.388z"/>
		<path fill="#313335" d="M25.488,5.386c-2.434,0-4.34,1.795-4.34,4.086s1.907,4.086,4.34,4.086s4.34-1.795,4.34-4.086
			S27.922,5.386,25.488,5.386z M25.488,11.44c-1.173,0-2.025-0.828-2.025-1.969s0.851-1.969,2.025-1.969s2.025,0.828,2.025,1.969
			S26.662,11.44,25.488,11.44z"/>
		<path fill="#313335" d="M39.845,13.336V2.438h-2.316v4.069l-0.171-0.186c-0.569-0.62-1.385-0.935-2.423-0.935
			c-2.19,0-3.905,1.795-3.905,4.086s1.715,4.086,3.905,4.086c1.039,0,1.854-0.315,2.423-0.935l0.171-0.186v0.899H39.845z
			 M35.438,11.504c-1.251,0-2.092-0.817-2.092-2.032s0.841-2.032,2.092-2.032c1.251,0,2.092,0.817,2.092,2.032
			S36.689,11.504,35.438,11.504z"/>
		<path fill="#313335" d="M45.823,5.386c-2.525,0-4.357,1.718-4.357,4.086c0,2.406,1.867,4.086,4.541,4.086
			c1.52,0,2.698-0.506,3.502-1.503l-1.844-1.003c-0.384,0.364-0.985,0.579-1.625,0.579c-1.094,0-1.801-0.394-2.102-1.172
			l-0.052-0.134h6.01c0.054-0.27,0.082-0.557,0.082-0.852C49.979,7.143,48.192,5.386,45.823,5.386z M43.849,8.746l0.037-0.126
			c0.248-0.853,0.93-1.323,1.92-1.323c0.943,0,1.625,0.482,1.87,1.323l0.037,0.126H43.849z"/>
		<path fill="#313335" d="M55.588,16.727c1.995,0,4.324-0.966,4.324-3.689v-7.43h-2.249v0.977l-0.173-0.204
			c-0.562-0.661-1.359-0.995-2.371-0.995c-2.255,0-4.022,1.725-4.022,3.927s1.767,3.927,4.022,3.927
			c1.011,0,1.809-0.335,2.371-0.995l0.173-0.204v0.997c0,1.14-0.726,1.794-1.991,1.794c-1.166,0-1.659-0.499-1.946-0.965
			l-1.97,1.078C52.485,16.095,53.841,16.727,55.588,16.727z M55.537,11.25c-1.251,0-2.125-0.796-2.125-1.937
			s0.874-1.937,2.125-1.937s2.125,0.796,2.125,1.937S56.789,11.25,55.537,11.25z"/>
		<path fill="#313335" d="M64.867,13.557c1.018,0,1.862-0.338,2.317-0.928l0.176-0.229v0.935h2.316V5.608h-2.316v4.228
			c0,1.1-0.604,1.731-1.656,1.731c-0.96,0-1.556-0.59-1.556-1.541V5.608h-2.316v4.767C61.833,12.573,63.357,13.557,64.867,13.557z"
			/>
		<g>
			<rect x="71.716" y="5.608" fill="#313335" width="2.316" height="7.727"/>
			<path fill="#313335" d="M72.873,2.058c-0.764,0-1.409,0.608-1.409,1.328c0,0.72,0.645,1.328,1.409,1.328
				c0.764,0,1.409-0.608,1.409-1.328C74.282,2.666,73.637,2.058,72.873,2.058z"/>
		</g>
		<path fill="#313335" d="M84.467,13.336V2.438h-2.316v4.069L81.98,6.321c-0.569-0.62-1.385-0.935-2.423-0.935
			c-2.19,0-3.905,1.795-3.905,4.086s1.715,4.086,3.905,4.086c1.039,0,1.854-0.315,2.423-0.935l0.171-0.186v0.899H84.467z
			 M80.059,11.504c-1.251,0-2.092-0.817-2.092-2.032s0.841-2.032,2.092-2.032s2.092,0.817,2.092,2.032S81.31,11.504,80.059,11.504z"
			/>
		<path fill="#313335" d="M94.902,13.336V5.608h-2.316v0.899l-0.171-0.186c-0.569-0.62-1.385-0.935-2.423-0.935
			c-2.19,0-3.905,1.795-3.905,4.086s1.715,4.086,3.905,4.086c1.039,0,1.854-0.315,2.423-0.935l0.171-0.186v0.899H94.902z
			 M90.494,11.504c-1.251,0-2.092-0.817-2.092-2.032s0.841-2.032,2.092-2.032c1.251,0,2.092,0.817,2.092,2.032
			S91.745,11.504,90.494,11.504z"/>
	</g>
	<g display="none">
		<path display="inline" fill="#313335" d="M18.475,8.388l2.018-1.108c-0.736-1.171-2.123-1.893-3.648-1.893
			c-2.474,0-4.34,1.756-4.34,4.086s1.866,4.086,4.34,4.086c1.528,0,2.916-0.729,3.648-1.909l-2.016-1.092
			c-0.303,0.528-0.931,0.852-1.665,0.852c-1.154,0-1.991-0.815-1.991-1.937s0.837-1.937,1.991-1.937
			C17.542,7.535,18.156,7.852,18.475,8.388z"/>
		<path display="inline" fill="#313335" d="M25.488,5.386c-2.434,0-4.34,1.795-4.34,4.086s1.907,4.086,4.34,4.086
			s4.34-1.795,4.34-4.086S27.922,5.386,25.488,5.386z M25.488,11.44c-1.173,0-2.025-0.828-2.025-1.969s0.851-1.969,2.025-1.969
			s2.025,0.828,2.025,1.969S26.662,11.44,25.488,11.44z"/>
		<path display="inline" fill="#313335" d="M39.845,13.336V2.438h-2.316v4.069l-0.171-0.186c-0.569-0.62-1.385-0.935-2.423-0.935
			c-2.19,0-3.905,1.795-3.905,4.086s1.715,4.086,3.905,4.086c1.039,0,1.854-0.315,2.423-0.935l0.171-0.186v0.899H39.845z
			 M35.438,11.504c-1.251,0-2.092-0.817-2.092-2.032s0.841-2.032,2.092-2.032c1.251,0,2.092,0.817,2.092,2.032
			S36.689,11.504,35.438,11.504z"/>
		<path display="inline" fill="#313335" d="M45.823,5.386c-2.525,0-4.357,1.718-4.357,4.086c0,2.406,1.867,4.086,4.541,4.086
			c1.52,0,2.698-0.506,3.502-1.503l-1.844-1.003c-0.384,0.364-0.985,0.579-1.625,0.579c-1.094,0-1.801-0.394-2.102-1.172
			l-0.052-0.134h6.01c0.054-0.27,0.082-0.557,0.082-0.852C49.979,7.143,48.192,5.386,45.823,5.386z M43.849,8.746l0.037-0.126
			c0.248-0.853,0.93-1.323,1.92-1.323c0.943,0,1.625,0.482,1.87,1.323l0.037,0.126H43.849z"/>
		<path display="inline" fill="#313335" d="M55.588,16.727c1.995,0,4.324-0.966,4.324-3.689v-7.43h-2.249v0.977l-0.173-0.204
			c-0.562-0.661-1.359-0.995-2.371-0.995c-2.255,0-4.022,1.725-4.022,3.927s1.767,3.927,4.022,3.927
			c1.011,0,1.809-0.335,2.371-0.995l0.173-0.204v0.997c0,1.14-0.726,1.794-1.991,1.794c-1.166,0-1.659-0.499-1.946-0.965
			l-1.97,1.078C52.485,16.095,53.841,16.727,55.588,16.727z M55.537,11.25c-1.251,0-2.125-0.796-2.125-1.937
			s0.874-1.937,2.125-1.937s2.125,0.796,2.125,1.937S56.789,11.25,55.537,11.25z"/>
		<path display="inline" fill="#313335" d="M64.867,13.557c1.018,0,1.862-0.338,2.317-0.928l0.176-0.229v0.935h2.316V5.608h-2.316
			v4.228c0,1.1-0.604,1.731-1.656,1.731c-0.96,0-1.556-0.59-1.556-1.541V5.608h-2.316v4.767
			C61.833,12.573,63.357,13.557,64.867,13.557z"/>
		<g display="inline">
			<rect x="71.716" y="5.608" fill="#313335" width="2.316" height="7.727"/>
			<path fill="#313335" d="M72.873,2.058c-0.764,0-1.409,0.608-1.409,1.328c0,0.72,0.645,1.328,1.409,1.328
				c0.764,0,1.409-0.608,1.409-1.328C74.282,2.666,73.637,2.058,72.873,2.058z"/>
		</g>
		<path display="inline" fill="#313335" d="M84.467,13.336V2.438h-2.316v4.069L81.98,6.321c-0.569-0.62-1.385-0.935-2.423-0.935
			c-2.19,0-3.905,1.795-3.905,4.086s1.715,4.086,3.905,4.086c1.039,0,1.854-0.315,2.423-0.935l0.171-0.186v0.899H84.467z
			 M80.059,11.504c-1.251,0-2.092-0.817-2.092-2.032s0.841-2.032,2.092-2.032s2.092,0.817,2.092,2.032S81.31,11.504,80.059,11.504z"
			/>
		<path display="inline" fill="#313335" d="M94.902,13.336V5.608h-2.316v0.899l-0.171-0.186c-0.569-0.62-1.385-0.935-2.423-0.935
			c-2.19,0-3.905,1.795-3.905,4.086s1.715,4.086,3.905,4.086c1.039,0,1.854-0.315,2.423-0.935l0.171-0.186v0.899H94.902z
			 M90.494,11.504c-1.251,0-2.092-0.817-2.092-2.032s0.841-2.032,2.092-2.032c1.251,0,2.092,0.817,2.092,2.032
			S91.745,11.504,90.494,11.504z"/>
	</g>
	<g display="none">
		<path display="inline" fill="#313335" d="M12.407,9.472c0-2.361,1.893-4.184,4.439-4.184c1.625,0,3.065,0.808,3.786,2.029
			l-2.194,1.204c-0.285-0.555-0.888-0.888-1.625-0.888c-1.089,0-1.893,0.745-1.893,1.838s0.804,1.838,1.893,1.838
			c0.737,0,1.357-0.333,1.625-0.888l2.194,1.189c-0.72,1.236-2.144,2.044-3.786,2.044C14.299,13.656,12.407,11.833,12.407,9.472z"/>
		<path display="inline" fill="#313335" d="M21.049,9.472c0-2.361,1.976-4.184,4.439-4.184c2.462,0,4.439,1.823,4.439,4.184
			s-1.977,4.184-4.439,4.184C23.026,13.656,21.049,11.833,21.049,9.472z M27.415,9.472c0-1.125-0.838-1.87-1.926-1.87
			c-1.089,0-1.926,0.745-1.926,1.87s0.838,1.87,1.926,1.87C26.577,11.342,27.415,10.597,27.415,9.472z"/>
		<path display="inline" fill="#313335" d="M39.944,2.34v11.094h-2.513v-0.745c-0.553,0.602-1.373,0.967-2.496,0.967
			c-2.194,0-4.003-1.823-4.003-4.184s1.809-4.184,4.003-4.184c1.122,0,1.943,0.365,2.496,0.967V2.34H39.944z M37.431,9.472
			c0-1.189-0.838-1.934-1.993-1.934c-1.156,0-1.993,0.745-1.993,1.934s0.838,1.934,1.993,1.934
			C36.594,11.405,37.431,10.661,37.431,9.472z"/>
		<path display="inline" fill="#313335" d="M46.04,11.532c0.687,0,1.273-0.254,1.608-0.602l2.01,1.094
			c-0.821,1.078-2.06,1.632-3.652,1.632c-2.864,0-4.64-1.823-4.64-4.184s1.809-4.184,4.456-4.184c2.446,0,4.255,1.791,4.255,4.184
			c0,0.333-0.034,0.65-0.1,0.951H44.03C44.349,11.247,45.119,11.532,46.04,11.532z M47.581,8.648
			c-0.268-0.919-1.022-1.252-1.776-1.252c-0.955,0-1.591,0.444-1.826,1.252H47.581z"/>
		<path display="inline" fill="#313335" d="M60.01,5.51v7.528c0,2.663-2.194,3.788-4.422,3.788c-1.742,0-3.199-0.618-3.97-1.918
			l2.144-1.173c0.318,0.555,0.804,0.998,1.91,0.998c1.172,0,1.893-0.571,1.893-1.696v-0.729c-0.553,0.65-1.357,1.03-2.446,1.03
			c-2.378,0-4.121-1.838-4.121-4.026s1.742-4.026,4.121-4.026c1.089,0,1.893,0.38,2.446,1.03V5.51H60.01z M57.564,9.313
			c0-1.094-0.838-1.838-2.027-1.838c-1.189,0-2.027,0.745-2.027,1.838s0.838,1.838,2.027,1.838
			C56.727,11.152,57.564,10.407,57.564,9.313z"/>
		<path display="inline" fill="#313335" d="M69.775,5.51v7.924h-2.513v-0.745c-0.452,0.586-1.29,0.967-2.395,0.967
			c-1.692,0-3.132-1.141-3.132-3.281V5.51h2.513v4.517c0,0.983,0.653,1.442,1.457,1.442c0.921,0,1.558-0.507,1.558-1.632V5.51
			H69.775z"/>
		<path display="inline" fill="#313335" d="M71.366,3.386c0-0.777,0.687-1.426,1.508-1.426c0.821,0,1.508,0.65,1.508,1.426
			s-0.687,1.426-1.508,1.426C72.053,4.812,71.366,4.163,71.366,3.386z M71.617,5.51h2.513v7.924h-2.513V5.51z"/>
		<path display="inline" fill="#313335" d="M84.565,2.34v11.094h-2.513v-0.745c-0.553,0.602-1.373,0.967-2.496,0.967
			c-2.194,0-4.003-1.823-4.003-4.184s1.809-4.184,4.003-4.184c1.122,0,1.943,0.365,2.496,0.967V2.34H84.565z M82.052,9.472
			c0-1.189-0.838-1.934-1.993-1.934c-1.156,0-1.993,0.745-1.993,1.934s0.838,1.934,1.993,1.934
			C81.215,11.405,82.052,10.661,82.052,9.472z"/>
		<path display="inline" fill="#313335" d="M95,5.51v7.924h-2.513v-0.745c-0.553,0.602-1.373,0.967-2.496,0.967
			c-2.194,0-4.003-1.823-4.003-4.184s1.809-4.184,4.003-4.184c1.122,0,1.943,0.365,2.496,0.967V5.51H95z M92.487,9.472
			c0-1.189-0.838-1.934-1.993-1.934c-1.156,0-1.993,0.745-1.993,1.934s0.838,1.934,1.993,1.934
			C91.65,11.405,92.487,10.661,92.487,9.472z"/>
	</g>
	<g display="none">
		<g display="inline">
			<path fill="#902356" d="M9.812,9.151C10.119,9.457,10.04,9.839,9.638,10l-1.44,0.576c-0.402,0.161-0.982,0.042-1.288-0.264
				L0.187,3.589C-0.119,3.282-0.041,2.9,0.361,2.739l1.44-0.576c0.402-0.161,0.982-0.042,1.288,0.264L9.812,9.151z"/>
		</g>
		<g display="inline">
			<path fill="#DA4453" d="M8.273,7.591C8.58,7.285,8.962,7.363,9.123,7.765l0.576,1.44c0.161,0.402,0.042,0.982-0.264,1.288
				l-6.723,6.723c-0.306,0.306-0.688,0.228-0.849-0.174l-0.576-1.44C1.125,15.2,1.244,14.62,1.55,14.314L8.273,7.591z"/>
		</g>
	</g>
	<g>
		<g>
			<path fill="#313335" d="M21.282,15.075c0.295,0,0.442,0.18,0.325,0.4l-0.728,1.377c-0.116,0.22-0.453,0.4-0.748,0.4h-9.283
				c-0.295,0-0.442-0.18-0.325-0.4l0.728-1.377c0.116-0.22,0.453-0.4,0.748-0.4H21.282z"/>
		</g>
		<g display="none">
			<g display="inline">
				<path fill="#313335" d="M8.344,10.942c-0.166,0.066-0.35,0.1-0.547,0.1c-0.44,0-0.887-0.173-1.165-0.451L5.953,9.911v0
					L1.55,14.314C1.244,14.62,1.125,15.2,1.286,15.602l0.576,1.44c0.161,0.402,0.543,0.481,0.849,0.174l6.703-6.703L8.344,10.942z"
					/>
			</g>
			<g display="inline">
				<path fill="#313335" d="M9.699,9.205L9.586,8.925L8.263,7.601L6.231,9.633l0.291,0.291l0.388,0.388c0,0,0,0,0,0
					c0.024,0.024,0.05,0.046,0.077,0.067c0.008,0.006,0.016,0.012,0.023,0.018c0.022,0.017,0.045,0.032,0.069,0.047
					c0.007,0.004,0.013,0.009,0.02,0.013c0.03,0.018,0.061,0.035,0.094,0.051c0.007,0.003,0.014,0.006,0.021,0.01
					c0.027,0.012,0.054,0.024,0.081,0.035c0.01,0.004,0.019,0.007,0.029,0.011c0.033,0.012,0.067,0.023,0.101,0.032
					c0.002,0,0.003,0.001,0.005,0.002c0.036,0.01,0.072,0.018,0.108,0.025c0.01,0.002,0.02,0.004,0.03,0.005
					c0.029,0.005,0.058,0.009,0.087,0.012c0.009,0.001,0.018,0.002,0.027,0.003c0.036,0.003,0.073,0.005,0.109,0.005
					c0.009,0,0.018,0,0.027-0.001c0.023,0,0.047-0.001,0.07-0.003c0.012-0.001,0.023-0.002,0.035-0.003
					c0.021-0.002,0.042-0.005,0.062-0.008c0.012-0.002,0.023-0.004,0.034-0.006c0.021-0.004,0.042-0.009,0.063-0.014
					c0.01-0.002,0.02-0.005,0.029-0.007c0.03-0.008,0.059-0.018,0.087-0.029c0,0,0,0,0,0l1.08-0.432L9.638,10l0,0
					c0.019-0.008,0.037-0.016,0.055-0.025c0.01-0.005,0.021-0.01,0.031-0.016l0,0C9.791,9.704,9.788,9.428,9.699,9.205z"/>
				<path fill="#313335" d="M5.953,9.354l2.032-2.032L3.089,2.428C2.783,2.121,2.204,2.002,1.801,2.163l-1.44,0.576
					C-0.041,2.9-0.119,3.282,0.187,3.589L5.953,9.354L5.953,9.354z"/>
			</g>
		</g>
	</g>
	<g>
		<g>
			<path fill="#313335" d="M8.273,7.591C8.58,7.285,8.962,7.363,9.123,7.765l0.576,1.44c0.161,0.402,0.042,0.982-0.264,1.288
				l-6.723,6.723c-0.306,0.306-0.688,0.228-0.849-0.174l-0.576-1.44C1.125,15.2,1.244,14.62,1.55,14.314L8.273,7.591z"/>
			<g>
				<path fill="#313335" d="M8.031,7.369L3.089,2.428C2.783,2.121,2.204,2.002,1.801,2.163l-1.44,0.576
					C-0.041,2.9-0.119,3.282,0.187,3.589l5.812,5.812L8.031,7.369z"/>
			</g>
		</g>
	</g>
</g>
</svg>
