<?xml version="1.0" encoding="utf-8"?>
<!-- Generator: Adobe Illustrator 22.0.1, SVG Export Plug-In . SVG Version: 6.00 Build 0)  -->
<svg version="1.1" id="Layer_1" xmlns="http://www.w3.org/2000/svg" xmlns:xlink="http://www.w3.org/1999/xlink" x="0px" y="0px"
	 viewBox="0 0 20 15" style="enable-background:new 0 0 20 15;" xml:space="preserve">
<g>
	<g>
		<g>
			<path d="M19.5,0.2H0.5C0.2,0.2,0,0.4,0,0.7v13.6c0,0.3,0.2,0.5,0.5,0.5h19.1c0.3,0,0.5-0.2,0.5-0.5V0.7C20,0.4,19.8,0.2,19.5,0.2
				z M19.1,12.8l-5.6-5.6l-0.6,0.6l6.1,6.1H1.1l6.1-6.1L6.5,7.1l-5.6,5.6V1.1h18.2V12.8z"/>
		</g>
	</g>
	<g>
		<g>
			<path d="M18.2,1.1L10,9.3L1.8,1.1H0.9v0.4l8.8,8.8c0.2,0.2,0.5,0.2,0.6,0l8.8-8.8V1.1H18.2z"/>
		</g>
	</g>
</g>
</svg>
