<?xml version="1.0" encoding="utf-8"?>
<!-- Generator: Adobe Illustrator 17.0.0, SVG Export Plug-In . SVG Version: 6.00 Build 0)  -->
<!DOCTYPE svg PUBLIC "-//W3C//DTD SVG 1.1//EN" "http://www.w3.org/Graphics/SVG/1.1/DTD/svg11.dtd">
<svg version="1.1" id="Layer_1" xmlns:sketch="http://www.bohemiancoding.com/sketch/ns"
	 xmlns="http://www.w3.org/2000/svg" xmlns:xlink="http://www.w3.org/1999/xlink" x="0px" y="0px" width="20px" height="20px"
	 viewBox="7 9 20 20" enable-background="new 7 9 20 20" xml:space="preserve">
<title>eye-fill 106</title>
<desc>Created with Sketch.</desc>
<g sketch:type="MSPage">
	<path sketch:type="MSShapeGroup" d="M26.35,15.05c-1.513-4.123-5.449-6.51-10.062-6.067c-3.921,0.374-7.219,2.84-8.606,6.439
		c-1.388,3.598-0.63,7.481,2.025,10.389c1.804,1.977,4.724,3.256,7.44,3.26h0.008c2.403,0,4.537-0.944,6.171-2.727
		c0.246-0.269,0.228-0.685-0.04-0.932c-0.266-0.244-0.684-0.227-0.931,0.041c-1.381,1.507-3.244,2.291-5.208,2.3
		c-2.362-0.003-4.902-1.114-6.469-2.83c-2.311-2.531-2.971-5.905-1.768-9.026c1.223-3.177,4.028-5.27,7.502-5.602
		c3.962-0.373,7.398,1.666,8.698,5.21c0.43,1.17,0.929,3.894,0.196,5.183c-0.203,0.359-0.476,0.559-0.859,0.631
		c-0.609,0.115-1.159-0.2-1.405-0.803c-0.054-0.13-0.115-0.501-0.174-0.858c-0.154-0.932-0.365-2.209-0.961-3.39
		c-0.974-1.927-2.945-3.217-5.02-3.287c-2.259-0.083-4.484,1.46-5.3,3.655c-0.236,0.629-0.356,1.293-0.356,1.974
		c0,3.117,2.536,5.654,5.653,5.654c1.273,0,2.475-0.414,3.477-1.195c0.287-0.224,0.339-0.638,0.115-0.925
		c-0.224-0.287-0.638-0.337-0.925-0.113c-0.768,0.598-1.69,0.916-2.666,0.916c-2.39,0-4.335-1.945-4.335-4.336
		c0-0.523,0.092-1.032,0.272-1.513c0.626-1.681,2.287-2.848,4.023-2.8c1.576,0.053,3.14,1.083,3.887,2.565
		c0.505,1,0.699,2.162,0.838,3.01c0.083,0.507,0.144,0.874,0.253,1.141c0.485,1.189,1.634,1.833,2.869,1.599
		c0.759-0.142,1.369-0.584,1.762-1.275C27.546,19.415,26.724,16.07,26.35,15.05"/>
</g>
</svg>
