<?xml version="1.0" encoding="utf-8"?>
<!-- Generator: Adobe Illustrator 21.0.2, SVG Export Plug-In . SVG Version: 6.00 Build 0)  -->
<svg version="1.1" id="Layer_1" xmlns="http://www.w3.org/2000/svg" xmlns:xlink="http://www.w3.org/1999/xlink" x="0px" y="0px"
	 viewBox="37.5 -6.5 25 25" style="enable-background:new 37.5 -6.5 25 25;" xml:space="preserve">
<g>
	<path d="M48-0.3l1.4-0.6l-3.2-5.6l-1,0.5c-2.8,1.4-4.9,3.5-6.2,6.1c-1,2-1.5,5.1-1.5,9.5v8.9h10.6V6.2h-3.9c0.2-1.7,0.5-3.1,1-4
		C45.9,1.1,46.8,0.3,48-0.3z"/>
	<path d="M58.3,2.2c0.6-1.2,1.5-2,2.8-2.5l1.4-0.6l-3.2-5.6l-1,0.5c-2.8,1.4-4.9,3.5-6.2,6.1c-1,2-1.5,5.1-1.5,9.5v8.9h10.6V6.2
		h-3.8C57.5,4.5,57.8,3.2,58.3,2.2z"/>
</g>
</svg>
