<?xml version="1.0" encoding="utf-8"?>
<!-- Generator: Adobe Illustrator 17.0.0, SVG Export Plug-In . SVG Version: 6.00 Build 0)  -->
<!DOCTYPE svg PUBLIC "-//W3C//DTD SVG 1.1//EN" "http://www.w3.org/Graphics/SVG/1.1/DTD/svg11.dtd">
<svg version="1.1" id="Layer_1" xmlns="http://www.w3.org/2000/svg" xmlns:xlink="http://www.w3.org/1999/xlink" x="0px" y="0px"
	 width="10px" height="10px" viewBox="245 245 10 10" enable-background="new 245 245 10 10" xml:space="preserve">
<path d="M250,245c-2.757,0-5,2.243-5,5s2.243,5,5,5c1.148,0,2.271-0.401,3.16-1.128l0.285-0.233l-0.827-0.941l-0.265,0.214
	c-0.672,0.544-1.486,0.831-2.353,0.831c-2.064,0-3.743-1.679-3.743-3.743s1.679-3.743,3.743-3.743c2.064,0,3.743,1.679,3.743,3.743
	c0,0.057-0.002,0.118-0.007,0.198l-0.021,0.375h1.262l0.016-0.338c0.004-0.081,0.006-0.16,0.006-0.236
	C255,247.243,252.757,245,250,245z"/>
</svg>
