<?xml version="1.0" encoding="utf-8"?>
<!-- Generator: Adobe Illustrator 17.0.0, SVG Export Plug-In . SVG Version: 6.00 Build 0)  -->
<!DOCTYPE svg PUBLIC "-//W3C//DTD SVG 1.1//EN" "http://www.w3.org/Graphics/SVG/1.1/DTD/svg11.dtd">
<svg version="1.1" id="Layer_1" xmlns="http://www.w3.org/2000/svg" xmlns:xlink="http://www.w3.org/1999/xlink" x="0px" y="0px"
	 width="15px" height="15px" viewBox="22.5 22.5 15 15" enable-background="new 22.5 22.5 15 15" xml:space="preserve">
<path fill="#FFFFFF" d="M22.5,35.357c0-1.183,0.959-2.143,2.143-2.143c1.183,0,2.143,0.959,2.143,2.143S25.826,37.5,24.643,37.5
	C23.46,37.5,22.5,36.541,22.5,35.357z M37.5,37.5h-2.857c0-6.696-5.447-12.143-12.143-12.143V22.5
	C30.771,22.5,37.5,29.229,37.5,37.5z M32.5,37.5h-2.857c0-3.939-3.205-7.143-7.143-7.143V27.5C28.014,27.5,32.5,31.986,32.5,37.5z"
	/>
</svg>
