<?xml version="1.0" encoding="utf-8"?>
<!-- Generator: Adobe Illustrator 17.0.0, SVG Export Plug-In . SVG Version: 6.00 Build 0)  -->
<!DOCTYPE svg PUBLIC "-//W3C//DTD SVG 1.1//EN" "http://www.w3.org/Graphics/SVG/1.1/DTD/svg11.dtd">
<svg version="1.1" id="Layer_1" xmlns="http://www.w3.org/2000/svg" xmlns:xlink="http://www.w3.org/1999/xlink" x="0px" y="0px"
	 width="18px" height="16px" viewBox="21 22 18 16" enable-background="new 21 22 18 16" xml:space="preserve">
<g>
	<path id="Shape" fill="#C8DAEA" d="M27.77,36.634c-0.536,0-0.445-0.202-0.63-0.713l-1.577-5.19l12.139-7.201"/>
	<path id="Shape_1_" fill="#A9C9DD" d="M27.77,36.634c0.414,0,0.597-0.189,0.828-0.414l2.207-2.146l-2.753-1.66"/>
	
		<linearGradient id="Shape_3_" gradientUnits="userSpaceOnUse" x1="-310.7281" y1="365.8242" x2="-310.6537" y2="365.6225" gradientTransform="matrix(32.6232 0 0 -27.3624 10168.2373 10039.0986)">
		<stop  offset="0" style="stop-color:#EFF7FC"/>
		<stop  offset="1" style="stop-color:#FFFFFF"/>
	</linearGradient>
	<path id="Shape_2_" fill="url(#Shape_3_)" d="M28.052,32.415l6.671,4.928c0.761,0.42,1.311,0.203,1.5-0.707l2.715-12.796
		c0.278-1.115-0.425-1.62-1.153-1.289L21.84,28.699c-1.088,0.437-1.082,1.044-0.198,1.314l4.092,1.277l9.473-5.976
		c0.447-0.271,0.858-0.125,0.521,0.174"/>
</g>
</svg>
