<?xml version="1.0" encoding="utf-8"?>
<!-- Generator: Adobe Illustrator 17.0.0, SVG Export Plug-In . SVG Version: 6.00 Build 0)  -->
<!DOCTYPE svg PUBLIC "-//W3C//DTD SVG 1.1//EN" "http://www.w3.org/Graphics/SVG/1.1/DTD/svg11.dtd">
<svg version="1.1" id="Layer_1" xmlns="http://www.w3.org/2000/svg" xmlns:xlink="http://www.w3.org/1999/xlink" x="0px" y="0px"
	 width="18px" height="15px" viewBox="21 22.5 18 15" enable-background="new 21 22.5 18 15" xml:space="preserve">
<path id="Shape" fill="#FFFFFF" d="M29.74,26.519l0.039,0.643l-0.65-0.079c-2.367-0.302-4.435-1.326-6.191-3.046l-0.858-0.853
	l-0.221,0.63c-0.468,1.405-0.169,2.889,0.806,3.887c0.52,0.551,0.403,0.63-0.494,0.302c-0.312-0.105-0.585-0.184-0.611-0.144
	c-0.091,0.092,0.221,1.287,0.468,1.759c0.338,0.657,1.027,1.3,1.782,1.681l0.637,0.302l-0.754,0.013
	c-0.728,0-0.754,0.013-0.676,0.289c0.26,0.853,1.288,1.759,2.432,2.153l0.806,0.276l-0.702,0.42
	c-1.04,0.604-2.263,0.945-3.486,0.972C21.481,35.737,21,35.79,21,35.829c0,0.131,1.587,0.867,2.51,1.155
	c2.77,0.853,6.061,0.486,8.532-0.972c1.756-1.037,3.512-3.099,4.331-5.095c0.442-1.064,0.884-3.007,0.884-3.939
	c0-0.604,0.039-0.683,0.767-1.405c0.429-0.42,0.832-0.88,0.91-1.011c0.13-0.249,0.117-0.249-0.546-0.026
	c-1.106,0.394-1.262,0.341-0.715-0.249c0.403-0.42,0.884-1.182,0.884-1.405c0-0.039-0.195,0.026-0.416,0.144
	c-0.234,0.131-0.754,0.328-1.145,0.446l-0.702,0.223l-0.637-0.433c-0.351-0.236-0.845-0.499-1.106-0.578
	c-0.663-0.184-1.678-0.158-2.276,0.053C30.65,23.329,29.623,24.852,29.74,26.519z"/>
</svg>
