<?xml version="1.0" encoding="utf-8"?>
<!-- Generator: Adobe Illustrator 17.0.0, SVG Export Plug-In . SVG Version: 6.00 Build 0)  -->
<!DOCTYPE svg PUBLIC "-//W3C//DTD SVG 1.1//EN" "http://www.w3.org/Graphics/SVG/1.1/DTD/svg11.dtd">
<svg version="1.1" id="Capa_1" xmlns="http://www.w3.org/2000/svg" xmlns:xlink="http://www.w3.org/1999/xlink" x="0px" y="0px"
	 width="25px" height="25px" viewBox="337.5 337.5 25 25" enable-background="new 337.5 337.5 25 25" xml:space="preserve">
<path d="M350,337.5c-6.893,0-12.5,5.607-12.5,12.5c0,1.779,0.368,3.499,1.094,5.112c0.68,1.51,1.638,2.851,2.848,3.99l-0.017,0.015
	l0.526,0.443c0.016,0.014,0.033,0.026,0.05,0.038c0.011,0.008,0.022,0.016,0.032,0.024c0.198,0.164,0.416,0.332,0.666,0.512
	c0.068,0.049,0.145,0.105,0.222,0.158c0.238,0.164,0.49,0.325,0.746,0.476c0.055,0.033,0.111,0.064,0.167,0.096
	c0.289,0.165,0.577,0.315,0.855,0.446c0.012,0.005,0.023,0.011,0.035,0.016c0.01,0.004,0.019,0.009,0.029,0.013
	c0.96,0.446,1.977,0.768,3.023,0.957l0.084,0.015c0.342,0.059,0.678,0.104,0.999,0.133c0.021,0.002,0.042,0.003,0.063,0.005
	c0.02,0.001,0.039,0.003,0.06,0.005c0.37,0.031,0.703,0.045,1.018,0.045c0.307,0,0.638-0.015,1.011-0.045
	c0.02-0.002,0.04-0.003,0.061-0.005c0.022-0.002,0.043-0.003,0.066-0.005c0.325-0.03,0.658-0.074,0.991-0.131l0.015-0.003
	c0.024-0.004,0.048-0.008,0.07-0.013c1.029-0.185,2.032-0.499,2.981-0.934c0.014-0.006,0.027-0.012,0.041-0.019
	c0.021-0.009,0.042-0.019,0.063-0.029c0.272-0.128,0.549-0.271,0.823-0.425c0.067-0.038,0.133-0.076,0.199-0.115
	c0.264-0.156,0.499-0.304,0.718-0.454c0.068-0.047,0.136-0.095,0.201-0.143l0.049-0.035c0.215-0.155,0.407-0.301,0.585-0.446
	c0.017-0.014,0.035-0.027,0.052-0.04c0.025-0.019,0.052-0.038,0.077-0.06l0.54-0.451l-0.018-0.016
	c1.22-1.138,2.186-2.483,2.871-3.998c0.733-1.62,1.105-3.347,1.105-5.136C362.5,343.107,356.893,337.5,350,337.5z M350,361.319
	c-0.254,0-0.529-0.011-0.841-0.035l-0.036-0.003c-0.036-0.003-0.072-0.005-0.109-0.009c-0.301-0.027-0.576-0.06-0.837-0.103
	l-0.04-0.007c-0.584-0.098-1.165-0.243-1.727-0.431l-0.052-0.018c-0.284-0.096-0.562-0.203-0.826-0.316l-0.007-0.003
	c-0.235-0.101-0.483-0.22-0.757-0.362c-0.013-0.007-0.027-0.014-0.04-0.021c-0.019-0.01-0.038-0.019-0.057-0.03
	c-0.21-0.112-0.428-0.239-0.667-0.389c-0.065-0.041-0.13-0.082-0.194-0.124c-0.174-0.114-0.332-0.222-0.479-0.329l3.405-1.857
	c0.657-0.358,1.065-1.045,1.065-1.793l0-1.67l-0.137-0.165c-0.01-0.011-0.962-1.181-1.319-2.734l-0.054-0.234l-0.201-0.131
	c-0.176-0.114-0.281-0.303-0.281-0.507v-1.593c0-0.168,0.072-0.326,0.204-0.445l0.195-0.176v-2.566l-0.004-0.069l-0.001-0.008
	c-0.001-0.01-0.118-1.037,0.593-1.849c0.622-0.709,1.7-1.069,3.203-1.069c1.497,0,2.572,0.357,3.196,1.061
	c0.705,0.796,0.605,1.817,0.6,1.861l-0.005,2.639l0.195,0.176c0.131,0.119,0.204,0.277,0.204,0.445v1.593
	c0,0.259-0.177,0.494-0.431,0.573l-0.294,0.09l-0.095,0.293c-0.261,0.81-0.632,1.558-1.103,2.223
	c-0.114,0.161-0.225,0.304-0.322,0.415l-0.146,0.167v1.715c0,0.779,0.433,1.478,1.129,1.826l3.669,1.834
	c-0.145,0.104-0.29,0.204-0.432,0.296l-0.023,0.015c-0.065,0.043-0.133,0.086-0.199,0.128c-0.217,0.134-0.432,0.258-0.64,0.368
	c-0.031,0.016-0.062,0.032-0.093,0.048l-0.052,0.027c-0.506,0.259-1.027,0.48-1.548,0.655l-0.026,0.009
	c-0.01,0.003-0.02,0.007-0.031,0.011c-0.277,0.092-0.555,0.173-0.829,0.241l-0.018,0.004c-0.28,0.069-0.573,0.129-0.872,0.178
	c-0.005,0.001-0.011,0.002-0.016,0.003l-0.008,0.001c-0.257,0.042-0.53,0.075-0.833,0.102c-0.037,0.003-0.075,0.006-0.112,0.009
	l-0.036,0.003C350.527,361.307,350.255,361.319,350,361.319z M352.981,354.249c0.081-0.101,0.165-0.214,0.251-0.335
	c0.489-0.691,0.884-1.458,1.175-2.283c0.596-0.307,0.964-0.907,0.964-1.579v-1.593c0-0.404-0.141-0.798-0.399-1.116v-2.039
	c0.027-0.277,0.097-1.62-0.881-2.735c-0.856-0.977-2.232-1.472-4.091-1.472c-1.859,0-3.235,0.495-4.091,1.472
	c-0.978,1.115-0.908,2.458-0.881,2.735v2.039c-0.257,0.318-0.399,0.712-0.399,1.116v1.593c0,0.519,0.225,1.007,0.618,1.347
	c0.359,1.369,1.058,2.415,1.374,2.839v1.254c0,0.315-0.172,0.605-0.449,0.756l-3.553,1.938c-0.085,0.046-0.17,0.098-0.259,0.158
	c-2.34-2.144-3.679-5.178-3.679-8.342c0-6.241,5.078-11.319,11.319-11.319c6.241,0,11.319,5.078,11.319,11.319
	c0,3.19-1.358,6.241-3.731,8.389c-0.113-0.074-0.22-0.136-0.326-0.189l-3.805-1.902c-0.293-0.147-0.476-0.441-0.476-0.769V354.249z"
	/>
</svg>
