<?xml version="1.0" encoding="utf-8"?>
<!-- Generator: Adobe Illustrator 17.0.0, SVG Export Plug-In . SVG Version: 6.00 Build 0)  -->
<!DOCTYPE svg PUBLIC "-//W3C//DTD SVG 1.1//EN" "http://www.w3.org/Graphics/SVG/1.1/DTD/svg11.dtd">
<svg version="1.1" id="Layer_1" xmlns="http://www.w3.org/2000/svg" xmlns:xlink="http://www.w3.org/1999/xlink" x="0px" y="0px"
	 width="21px" height="12px" viewBox="19.5 24 21 12" enable-background="new 19.5 24 21 12" xml:space="preserve">
<path id="Shape" fill="#FFFFFF" d="M31.03,35.831c0,0,0.379-0.041,0.573-0.246c0.178-0.188,0.172-0.541,0.172-0.541
	s-0.024-1.652,0.758-1.896c0.77-0.24,1.759,1.598,2.809,2.305c0.793,0.534,1.395,0.417,1.395,0.417l2.805-0.038
	c0,0,1.467-0.089,0.771-1.221c-0.058-0.093-0.406-0.838-2.085-2.368c-1.759-1.602-1.523-1.343,0.595-4.114
	c1.29-1.688,1.806-2.718,1.644-3.159c-0.153-0.421-1.102-0.31-1.102-0.31l-3.157,0.019c0,0-0.234-0.031-0.408,0.071
	c-0.169,0.1-0.279,0.333-0.279,0.333s-0.499,1.306-1.166,2.417c-1.406,2.343-1.968,2.467-2.198,2.322
	c-0.535-0.34-0.402-1.363-0.402-2.09c0-2.271,0.351-3.218-0.683-3.463c-0.343-0.082-0.596-0.135-1.474-0.144
	c-1.127-0.011-2.08,0.004-2.62,0.263c-0.359,0.172-0.637,0.558-0.467,0.58c0.209,0.027,0.681,0.125,0.932,0.46
	c0.324,0.433,0.312,1.402,0.312,1.402s0.186,2.674-0.434,3.005c-0.425,0.228-1.009-0.237-2.263-2.363
	c-0.642-1.089-1.127-2.293-1.127-2.293s-0.093-0.225-0.261-0.346c-0.202-0.146-0.485-0.192-0.485-0.192l-3,0.019
	c0,0-0.451,0.012-0.616,0.205c-0.147,0.17-0.011,0.524-0.011,0.524s2.349,5.395,5.009,8.114c2.439,2.492,5.208,2.329,5.208,2.329
	H31.03z"/>
</svg>
